<?xml version="1.0" standalone="no"?>
<!DOCTYPE svg PUBLIC "-//W3C//DTD SVG 20010904//EN"
 "http://www.w3.org/TR/2001/REC-SVG-20010904/DTD/svg10.dtd">
<svg version="1.0" xmlns="http://www.w3.org/2000/svg"
 width="176.000000pt" height="176.000000pt" viewBox="0 0 176.000000 176.000000"
 preserveAspectRatio="xMidYMid meet">
<metadata>
Created by potrace 1.11, written by Peter Selinger 2001-2013
</metadata>
<g transform="translate(0.000000,176.000000) scale(0.100000,-0.100000)"
fill="#000000" stroke="none">
<path d="M0 880 l0 -403 61 7 c122 14 232 71 329 170 l53 54 54 -54 c68 -69
159 -128 231 -150 65 -19 212 -26 275 -13 67 15 177 74 235 126 l54 48 -57 75
c-31 41 -60 79 -64 83 -5 4 -29 -12 -56 -37 -71 -68 -124 -90 -220 -93 -140
-4 -214 46 -369 250 -82 109 -185 220 -222 240 -11 6 -21 13 -24 16 -23 27
-143 69 -221 77 l-59 6 0 -402z m100 -1 c0 -183 -1 -189 -37 -176 -8 2 -13
345 -6 359 1 3 12 4 23 1 19 -5 20 -14 20 -184z m82 134 c16 -14 18 -33 18
-138 0 -118 -1 -122 -23 -132 l-24 -11 0 149 c0 82 3 149 5 149 3 0 14 -7 24
-17z m108 -103 l21 -29 -22 -31 c-13 -16 -25 -30 -29 -30 -3 0 -5 27 -5 60 0
33 3 60 7 60 4 0 16 -13 28 -30z"/>
<path d="M765 1266 c-68 -18 -117 -39 -169 -75 -44 -31 -106 -88 -106 -98 0
-3 26 -40 57 -82 32 -42 59 -78 60 -80 2 -2 25 16 51 42 74 68 123 90 217 95
69 4 87 1 135 -21 79 -35 124 -79 243 -234 184 -239 273 -302 465 -328 l42 -6
0 401 0 400 -45 -4 c-116 -11 -228 -67 -326 -166 l-58 -57 -53 54 c-112 114
-219 163 -368 169 -59 2 -114 -1 -145 -10z m955 -233 c1 -55 1 -272 1 -310 -1
-29 -3 -32 -23 -24 -23 8 -23 11 -23 182 0 146 2 175 15 181 27 12 30 9 30
-29z m-102 -230 l-3 -78 -21 21 c-18 18 -20 32 -19 138 1 105 3 120 20 133 19
13 20 11 23 -62 2 -41 2 -110 0 -152z m-100 46 l-3 -31 -27 30 -27 31 27 33
27 32 3 -32 c2 -18 2 -46 0 -63z"/>
<path d="M843 985 c-59 -25 -87 -99 -58 -154 34 -66 116 -85 174 -40 32 25 39
43 40 96 1 34 -5 47 -30 72 -17 17 -36 31 -42 32 -7 0 -21 2 -32 4 -11 2 -34
-2 -52 -10z"/>
</g>
</svg>
