<?xml version="1.0" encoding="UTF-8" standalone="no"?>
<svg width="128px" height="128px" viewBox="0 0 128 128" version="1.1" xmlns="http://www.w3.org/2000/svg" xmlns:xlink="http://www.w3.org/1999/xlink" xmlns:sketch="http://www.bohemiancoding.com/sketch/ns">
    <!-- Generator: Sketch 3.4.4 (17248) - http://www.bohemiancoding.com/sketch -->
    <title>icon-research copy</title>
    <desc>Created with Sketch.</desc>
    <defs></defs>
    <g id="Page-1" stroke="none" stroke-width="1" fill="none" fill-rule="evenodd" sketch:type="MSPage">
        <g id="icon-research-copy" sketch:type="MSLayerGroup">
            <circle id="Oval-Copy" fill="#F5F5F5" sketch:type="MSShapeGroup" cx="63" cy="64" r="54"></circle>
            <path d="M114.24021,125.521372 L114.240149,125.52131 L68.9447922,80.2238815 L66.2431347,77.5221004 L68.944854,74.8203811 L74.8054602,68.9597749 L77.5073031,66.257932 L80.2090842,68.9598368 L125.504379,114.257204 C128.615037,117.367862 128.615037,122.410714 125.506109,125.519641 C122.397417,128.632319 117.351157,128.632319 114.24021,125.521372 L114.24021,125.521372 Z" id="Shape" fill="#1A2A56" sketch:type="MSShapeGroup"></path>
            <path d="M90.5357956,45.2844766 L90.5357956,45.2844766 C90.5357956,70.2858783 70.2692995,90.5523744 45.2678978,90.5523744 C20.2664961,90.5523744 0,70.2858783 0,45.2844766 C0,20.2830749 20.2664961,0.0165788009 45.2678978,0.0165788009 C70.2692995,0.0165788009 90.5357956,20.2830749 90.5357956,45.2844766 L90.5357956,45.2844766 Z" id="Shape" fill="#1A2A56" sketch:type="MSShapeGroup"></path>
            <path d="M78.4254996,45.2844766 C78.4254996,63.5957622 63.5812558,78.4420784 45.2678978,78.4420784 C26.9545398,78.4420784 12.110296,63.5957622 12.110296,45.2844766 C12.110296,26.973191 26.9545398,12.1268748 45.2678978,12.1268748 C63.5812558,12.1268748 78.4254996,26.973191 78.4254996,45.2844766" id="Fill-25" fill="#F5F5F5" sketch:type="MSShapeGroup"></path>
            <path d="M56.6658234,45.2844766 C56.6658234,47.0010042 55.2744476,48.3930018 53.5572983,48.3930018 C51.840149,48.3930018 50.4487731,47.0010042 50.4487731,45.2844766 C50.4487731,43.567949 51.840149,42.1759514 53.5572983,42.1759514 C55.2744476,42.1759514 56.6658234,43.567949 56.6658234,45.2844766" id="Fill-726" fill="#31BEB7" sketch:type="MSShapeGroup"></path>
            <path d="M56.6658234,45.2844766 L56.6658234,45.2844766 L56.6658234,45.2844766 C56.6658234,43.567949 55.2744476,42.1759514 53.5572983,42.1759514 C51.840149,42.1759514 50.4487731,43.567949 50.4487731,45.2844766 C50.4487731,47.0010042 51.840149,48.3930018 53.5572983,48.3930018 C55.2744476,48.3930018 56.6658234,47.0010042 56.6658234,45.2844766 L56.6658234,45.2844766 Z M60.4867189,45.2844766 L60.4867189,45.2844766 C60.4867189,49.1113231 57.3845734,52.2138973 53.5572983,52.2138973 C49.7300232,52.2138973 46.6278776,49.1113231 46.6278776,45.2844766 C46.6278776,41.4576301 49.7300232,38.3550559 53.5572983,38.3550559 C57.3845734,38.3550559 60.4867189,41.4576301 60.4867189,45.2844766 L60.4867189,45.2844766 Z" id="Shape" fill="#1A2A56" sketch:type="MSShapeGroup"></path>
            <path d="M53.4925373,34.922726 L53.4925373,28.7056757 M51.5820896,28.7056757 L51.5820896,28.7056757 C51.5820896,27.6505645 52.4374261,26.7952279 53.4925373,26.7952279 C54.5476485,26.7952279 55.4029851,27.6505645 55.4029851,28.7056757 L55.4029851,34.922726 C55.4029851,35.9778372 54.5476485,36.8331738 53.4925373,36.8331738 C52.4374261,36.8331738 51.5820896,35.9778372 51.5820896,34.922726 L51.5820896,28.7056757 Z" id="Shape" fill="#1A2A56" sketch:type="MSShapeGroup"></path>
            <path d="M53.4925373,61.8632775 L53.4925373,55.6462272 M51.5820896,55.6462272 L51.5820896,55.6462272 C51.5820896,54.591116 52.4374261,53.7357794 53.4925373,53.7357794 C54.5476485,53.7357794 55.4029851,54.591116 55.4029851,55.6462272 L55.4029851,61.8632775 C55.4029851,62.9183887 54.5476485,63.7737253 53.4925373,63.7737253 C52.4374261,63.7737253 51.5820896,62.9183887 51.5820896,61.8632775 L51.5820896,55.6462272 Z" id="Shape" fill="#1A2A56" sketch:type="MSShapeGroup"></path>
            <path d="M63.9190488,44.8955224 L70.1360992,44.8955224 M70.1360992,42.9850746 L70.1360992,42.9850746 C71.1912103,42.9850746 72.0465469,43.8404112 72.0465469,44.8955224 C72.0465469,45.9506336 71.1912103,46.8059701 70.1360992,46.8059701 L63.9190488,46.8059701 C62.8639377,46.8059701 62.0086011,45.9506336 62.0086011,44.8955224 C62.0086011,43.8404112 62.8639377,42.9850746 63.9190488,42.9850746 L70.1360992,42.9850746 Z" id="Shape" fill="#1A2A56" sketch:type="MSShapeGroup"></path>
            <path d="M36.9784973,44.8955224 L43.1955477,44.8955224 M43.1955477,42.9850746 L43.1955477,42.9850746 C44.2506588,42.9850746 45.1059954,43.8404112 45.1059954,44.8955224 C45.1059954,45.9506336 44.2506588,46.8059701 43.1955477,46.8059701 L36.9784973,46.8059701 C35.9233862,46.8059701 35.0680496,45.9506336 35.0680496,44.8955224 C35.0680496,43.8404112 35.9233862,42.9850746 36.9784973,42.9850746 L43.1955477,42.9850746 Z" id="Shape" fill="#1A2A56" sketch:type="MSShapeGroup"></path>
            <path d="M46.2311261,37.9572683 L41.8335992,33.5618137 M40.483027,34.9130226 L40.483027,34.9130226 C39.736775,34.1671222 39.7364899,32.9574936 40.4823903,32.2112416 C41.2282907,31.4649895 42.4379193,31.4647044 43.1841713,32.2106048 L47.5816983,36.6060594 C48.3279504,37.3519598 48.3282354,38.5615884 47.582335,39.3078405 C46.8364346,40.0540925 45.6268061,40.0543776 44.880554,39.3084772 L40.483027,34.9130226 Z" id="Shape" fill="#1A2A56" sketch:type="MSShapeGroup"></path>
            <path d="M65.2809973,57.0069323 L60.8834704,52.6114777 M59.5328982,53.9626866 L59.5328982,53.9626866 C58.7866462,53.2167862 58.7863611,52.0071576 59.5322615,51.2609055 C60.2781619,50.5146534 61.4877905,50.5143684 62.2340425,51.2602688 L66.6315695,55.6557233 C67.3778215,56.4016237 67.3781066,57.6112523 66.6322062,58.3575044 C65.8863058,59.1037565 64.6766772,59.1040416 63.9304252,58.3581412 L59.5328982,53.9626866 Z" id="Shape" fill="#1A2A56" sketch:type="MSShapeGroup"></path>
            <path d="M60.8834704,37.9572683 L65.2809973,33.5618137 M63.9304252,32.2106048 L63.9304252,32.2106048 C64.6766772,31.4647044 65.8863058,31.4649895 66.6322062,32.2112416 C67.3781066,32.9574936 67.3778215,34.1671222 66.6315695,34.9130226 L62.2340425,39.3084772 C61.4877905,40.0543776 60.2781619,40.0540925 59.5322615,39.3078405 C58.7863611,38.5615884 58.7866462,37.3519598 59.5328982,36.6060594 L63.9304252,32.2106048 Z" id="Shape" fill="#1A2A56" sketch:type="MSShapeGroup"></path>
            <path d="M41.8335992,57.0069323 L46.2311261,52.6114777 M44.880554,51.2602688 L44.880554,51.2602688 C45.6268061,50.5143684 46.8364346,50.5146534 47.582335,51.2609055 C48.3282354,52.0071576 48.3279504,53.2167862 47.5816983,53.9626866 L43.1841713,58.3581412 C42.4379193,59.1040416 41.2282907,59.1037565 40.4823903,58.3575044 C39.7364899,57.6112523 39.736775,56.4016237 40.483027,55.6557233 L44.880554,51.2602688 Z" id="Shape" fill="#1A2A56" sketch:type="MSShapeGroup"></path>
            <path d="M32.8337971,66.0079777 L28.6890969,66.0079777 C27.5430873,66.0079777 26.6167468,65.0795649 26.6167468,63.9356276 L26.6167468,59.7909274 C26.6167468,58.6469901 27.5430873,57.7185773 28.6890969,57.7185773 L32.8337971,57.7185773 C33.9798067,57.7185773 34.9061472,58.6469901 34.9061472,59.7909274 L34.9061472,63.9356276 C34.9061472,65.0795649 33.9798067,66.0079777 32.8337971,66.0079777" id="Fill-736" fill="#31BEB7" sketch:type="MSShapeGroup"></path>
            <path d="M32.8337971,66.0079777 L32.8337971,66.0079777 L32.8337971,66.0079777 C33.9798067,66.0079777 34.9061472,65.0795649 34.9061472,63.9356276 L34.9061472,59.7909274 C34.9061472,58.6469901 33.9798067,57.7185773 32.8337971,57.7185773 L28.6890969,57.7185773 C27.5430873,57.7185773 26.6167468,58.6469901 26.6167468,59.7909274 L26.6167468,63.9356276 C26.6167468,65.0795649 27.5430873,66.0079777 28.6890969,66.0079777 L32.8337971,66.0079777 Z M32.8337971,69.8288733 L32.8337971,69.8288733 L28.6890969,69.8288733 C25.4329894,69.8288733 22.7958513,67.1899126 22.7958513,63.9356276 L22.7958513,59.7909274 C22.7958513,56.5366424 25.4329894,53.8976818 28.6890969,53.8976818 L32.8337971,53.8976818 C36.0899046,53.8976818 38.7270428,56.5366424 38.7270428,59.7909274 L38.7270428,63.9356276 C38.7270428,67.1899126 36.0899046,69.8288733 32.8337971,69.8288733 L32.8337971,69.8288733 Z" id="Shape" fill="#1A2A56" sketch:type="MSShapeGroup"></path>
            <path d="M45.2678978,26.6333256 L41.1231976,26.6333256 C39.977188,26.6333256 39.0508475,25.7049127 39.0508475,24.5609755 L39.0508475,20.4162752 C39.0508475,19.272338 39.977188,18.3439251 41.1231976,18.3439251 L45.2678978,18.3439251 C46.4139074,18.3439251 47.3402479,19.272338 47.3402479,20.4162752 L47.3402479,24.5609755 C47.3402479,25.7049127 46.4139074,26.6333256 45.2678978,26.6333256" id="Fill-738" fill="#31BEB7" sketch:type="MSShapeGroup"></path>
            <path d="M45.2678978,26.6333256 L45.2678978,26.6333256 L45.2678978,26.6333256 C46.4139074,26.6333256 47.3402479,25.7049127 47.3402479,24.5609755 L47.3402479,20.4162752 C47.3402479,19.272338 46.4139074,18.3439251 45.2678978,18.3439251 L41.1231976,18.3439251 C39.977188,18.3439251 39.0508475,19.272338 39.0508475,20.4162752 L39.0508475,24.5609755 C39.0508475,25.7049127 39.977188,26.6333256 41.1231976,26.6333256 L45.2678978,26.6333256 Z M45.2678978,30.4542211 L45.2678978,30.4542211 L41.1231976,30.4542211 C37.8670901,30.4542211 35.2299519,27.8152605 35.2299519,24.5609755 L35.2299519,20.4162752 C35.2299519,17.1619902 37.8670901,14.5230296 41.1231976,14.5230296 L45.2678978,14.5230296 C48.5240053,14.5230296 51.1611434,17.1619902 51.1611434,20.4162752 L51.1611434,24.5609755 C51.1611434,27.8152605 48.5240053,30.4542211 45.2678978,30.4542211 L45.2678978,30.4542211 Z" id="Shape" fill="#1A2A56" sketch:type="MSShapeGroup"></path>
            <path d="M29.0101369,23.1157922 C21.8240203,28.4589411 17.5,36.8718019 17.5,46 L22.5,46 C22.5,38.4699613 26.0629861,31.5377769 31.9935164,27.1282039 L29.0101369,23.1157922 L29.0101369,23.1157922 Z" id="Shape" fill="#FFFFFF" sketch:type="MSShapeGroup"></path>
        </g>
    </g>
</svg>