<?xml version="1.0" encoding="UTF-8" standalone="no"?>
<svg width="108px" height="128px" viewBox="0 0 108 128" version="1.1" xmlns="http://www.w3.org/2000/svg" xmlns:xlink="http://www.w3.org/1999/xlink" xmlns:sketch="http://www.bohemiancoding.com/sketch/ns">
    <!-- Generator: Sketch 3.4.4 (17248) - http://www.bohemiancoding.com/sketch -->
    <title>icon-custom-genetics</title>
    <desc>Created with Sketch.</desc>
    <defs></defs>
    <g id="Page-1" stroke="none" stroke-width="1" fill="none" fill-rule="evenodd" sketch:type="MSPage">
        <g id="icon-custom-genetics" sketch:type="MSLayerGroup">
            <circle id="Oval-Copy-3" fill="#FFFFFF" sketch:type="MSShapeGroup" cx="54" cy="64" r="54"></circle>
            <path d="M32.0220322,12.6174027 L37.430881,15.2143922 C38.4266226,15.6924847 39.6214012,15.2728473 40.0994938,14.2771057 C40.5775863,13.2813641 40.1579489,12.0865855 39.1622073,11.6084929 L33.7533585,9.01150351 C32.7576169,8.53341096 31.5628382,8.95304841 31.0847457,9.94878999 C30.6066531,10.9445316 31.0262906,12.1393102 32.0220322,12.6174027 L32.0220322,12.6174027 Z M44.6426795,18.6770447 L50.0515284,21.2740341 C51.04727,21.7521267 52.2420486,21.3324892 52.7201411,20.3367476 C53.1982337,19.3410061 52.7785962,18.1462274 51.7828546,17.6681349 L46.3740058,15.0711455 C45.3782642,14.5930529 44.1834856,15.0126904 43.705393,16.008432 C43.2273005,17.0041735 43.6469379,18.1989522 44.6426795,18.6770447 L44.6426795,18.6770447 Z M57.2633269,24.7366867 L62.6721757,27.3336761 C63.6679173,27.8117686 64.8626959,27.3921312 65.3407885,26.3963896 C65.818881,25.400648 65.3992436,24.2058694 64.403502,23.7277769 L58.9946531,21.1307874 C57.9989115,20.6526949 56.8041329,21.0723323 56.3260404,22.0680739 C55.8479478,23.0638155 56.2675853,24.2585941 57.2633269,24.7366867 L57.2633269,24.7366867 Z M69.8839742,30.7963286 L74.4517197,32.9894731 L75.3173828,31.1865234 L74.4154049,29.4014644 L73.5826477,29.8222508 C72.5967868,30.3203994 72.201418,31.5234268 72.6995666,32.5092877 C73.1977152,33.4951486 74.4007427,33.8905175 75.3866036,33.3923689 L76.2193607,32.9715825 L79.842725,31.1407218 L76.183046,29.3835738 L71.6153005,27.1904294 C70.6195589,26.7123369 69.4247803,27.1319743 68.9466877,28.1277159 C68.4685952,29.1234575 68.8882326,30.3182361 69.8839742,30.7963286 L69.8839742,30.7963286 Z M66.4424115,33.4301624 L61.0872343,36.1360962 C60.1013734,36.6342448 59.7060045,37.8372722 60.2041532,38.8231331 C60.7023018,39.808994 61.9053293,40.2043629 62.8911902,39.7062143 L68.2463673,37.0002805 C69.2322282,36.5021319 69.6275971,35.2991045 69.1294485,34.3132436 C68.6312998,33.3273827 67.4282724,32.9320138 66.4424115,33.4301624 L66.4424115,33.4301624 Z M53.9469981,39.7440078 L48.5918209,42.4499415 C47.60596,42.9480902 47.2105911,44.1511176 47.7087398,45.1369785 C48.2068884,46.1228394 49.4099158,46.5182083 50.3957767,46.0200597 L55.7509539,43.3141259 C56.7368148,42.8159773 57.1321837,41.6129498 56.6340351,40.627089 C56.1358864,39.6412281 54.932859,39.2458592 53.9469981,39.7440078 L53.9469981,39.7440078 Z M41.4515847,46.0578532 L36.0964075,48.7637869 C35.1105466,49.2619356 34.7151777,50.464963 35.2133263,51.4508239 C35.711475,52.4366848 36.9145024,52.8320537 37.9003633,52.333905 L43.2555405,49.6279713 C44.2414014,49.1298227 44.6367703,47.9267952 44.1386216,46.9409343 C43.640473,45.9550734 42.4374456,45.5597045 41.4515847,46.0578532 L41.4515847,46.0578532 Z M35.9225581,55.9453195 L41.2740583,58.6585179 C42.2592423,59.1580039 43.4628051,58.764268 43.9622911,57.779084 C44.4617772,56.7939 44.0680412,55.5903371 43.0828572,55.0908511 L37.731357,52.3776527 C36.746173,51.8781667 35.5426102,52.2719026 35.0431241,53.2570866 C34.5436381,54.2422706 34.9373741,55.4458335 35.9225581,55.9453195 L35.9225581,55.9453195 Z M48.4093919,62.2761158 L53.7608921,64.9893142 C54.7460761,65.4888002 55.9496389,65.0950643 56.4491249,64.1098803 C56.948611,63.1246963 56.554875,61.9211334 55.569691,61.4216474 L50.2181908,58.708449 C49.2330068,58.208963 48.029444,58.6026989 47.5299579,59.5878829 C47.0304719,60.5730669 47.4242079,61.7766298 48.4093919,62.2761158 L48.4093919,62.2761158 Z M60.8962257,68.6069121 L66.2477259,71.3201105 C67.2329099,71.8195965 68.4364727,71.4258605 68.9359587,70.4406766 C69.4354448,69.4554926 69.0417088,68.2519297 68.0565248,67.7524437 L62.7050246,65.0392453 C61.7198406,64.5397592 60.5162778,64.9334952 60.0167917,65.9186792 C59.5173057,66.9038632 59.9110417,68.107426 60.8962257,68.6069121 L60.8962257,68.6069121 Z M73.3830595,74.9377084 L74.4452099,75.4762162 L75.3496094,73.6923828 L74.458888,71.9016803 L70.153021,74.043481 C69.1640433,74.5354128 68.7611081,75.7359271 69.2530399,76.7249048 C69.7449717,77.7138825 70.9454861,78.1168178 71.9344638,77.624886 L76.2403307,75.4830853 L79.8060686,73.7094356 L76.2540088,71.9085494 L75.1918584,71.3700416 C74.2066744,70.8705555 73.0031116,71.2642915 72.5036255,72.2494755 C72.0041395,73.2346595 72.3978755,74.4382223 73.3830595,74.9377084 L73.3830595,74.9377084 Z M62.990211,77.6063665 L57.6181035,80.2785306 C56.6291259,80.7704624 56.2261906,81.9709768 56.7181224,82.9599544 C57.2100542,83.9489321 58.4105686,84.3518674 59.3995463,83.8599356 L64.7716538,81.1877714 C65.7606315,80.6958396 66.1635667,79.4953253 65.6716349,78.5063476 C65.1797031,77.5173699 63.9791887,77.1144346 62.990211,77.6063665 L62.990211,77.6063665 Z M50.4552935,83.8414161 L45.0831861,86.5135802 C44.0942084,87.005512 43.6912731,88.2060264 44.1832049,89.1950041 C44.6751368,90.1839817 45.8756511,90.586917 46.8646288,90.0949852 L52.2367363,87.4228211 C53.225714,86.9308892 53.6286493,85.7303749 53.1367174,84.7413972 C52.6447856,83.7524195 51.4442712,83.3494842 50.4552935,83.8414161 L50.4552935,83.8414161 Z M37.9203761,90.0764657 L32.5482686,92.7486298 C31.5592909,93.2405616 31.1563556,94.441076 31.6482875,95.4300537 C32.1402193,96.4190314 33.3407336,96.8219666 34.3297113,96.3300348 L39.7018188,93.6578707 C40.6907965,93.1659389 41.0937318,91.9654245 40.6017999,90.9764468 C40.1098681,89.9874691 38.9093537,89.5845339 37.9203761,90.0764657 L37.9203761,90.0764657 Z M38.9848938,100.240219 L44.1908104,103.223243 C45.1491932,103.772403 46.3712977,103.440662 46.9204573,102.482279 C47.4696168,101.523896 47.1378758,100.301792 46.1794931,99.7526324 L40.9735764,96.7696084 C40.0151936,96.2204489 38.7930891,96.5521898 38.2439295,97.5105726 C37.69477,98.4689554 38.026511,99.69106 38.9848938,100.240219 L38.9848938,100.240219 Z M51.1320326,107.200609 L56.3379492,110.183633 C57.296332,110.732792 58.5184366,110.401051 59.0675961,109.442668 C59.6167557,108.484286 59.2850147,107.262181 58.3266319,106.713022 L53.1207152,103.729998 C52.1623324,103.180838 50.9402279,103.512579 50.3910684,104.470962 C49.8419088,105.429345 50.1736498,106.651449 51.1320326,107.200609 L51.1320326,107.200609 Z M63.2791714,114.160998 L68.4850881,117.144022 C69.4434709,117.693181 70.6655754,117.36144 71.2147349,116.403058 C71.7638945,115.444675 71.4321535,114.22257 70.4737707,113.673411 L65.2678541,110.690387 C64.3094713,110.141227 63.0873667,110.472968 62.5382072,111.431351 C61.9890477,112.389734 62.3207886,113.611838 63.2791714,114.160998 L63.2791714,114.160998 Z" id="Shape" fill="#1A2A56" sketch:type="MSShapeGroup"></path>
            <circle id="Oval-9-Copy-6" fill="#31BEB7" sketch:type="MSShapeGroup" cx="33" cy="10" r="10"></circle>
            <circle id="Oval-9-Copy-25" fill="#31BEB7" sketch:type="MSShapeGroup" cx="75" cy="31" r="10"></circle>
            <circle id="Oval-9-Copy-23" fill="#31BEB7" sketch:type="MSShapeGroup" cx="33" cy="52" r="10"></circle>
            <circle id="Oval-9-Copy-26" fill="#31BEB7" sketch:type="MSShapeGroup" cx="75" cy="73" r="10"></circle>
            <circle id="Oval-9-Copy-24" fill="#31BEB7" sketch:type="MSShapeGroup" cx="33" cy="94" r="10"></circle>
            <circle id="Oval-9-Copy-27" fill="#31BEB7" sketch:type="MSShapeGroup" cx="75" cy="118" r="10"></circle>
            <path d="M33,16 L33,16 C36.3137085,16 39,13.3137085 39,10 C39,6.6862915 36.3137085,4 33,4 C29.6862915,4 27,6.6862915 27,10 C27,13.3137085 29.6862915,16 33,16 L33,16 Z M33,20 L33,20 C27.4771525,20 23,15.5228475 23,10 C23,4.4771525 27.4771525,0 33,0 C38.5228475,0 43,4.4771525 43,10 C43,15.5228475 38.5228475,20 33,20 L33,20 Z" id="Shape" fill="#1A2A56" sketch:type="MSShapeGroup"></path>
            <path d="M75,37 L75,37 C78.3137085,37 81,34.3137085 81,31 C81,27.6862915 78.3137085,25 75,25 C71.6862915,25 69,27.6862915 69,31 C69,34.3137085 71.6862915,37 75,37 L75,37 Z M75,41 L75,41 C69.4771525,41 65,36.5228475 65,31 C65,25.4771525 69.4771525,21 75,21 C80.5228475,21 85,25.4771525 85,31 C85,36.5228475 80.5228475,41 75,41 L75,41 Z" id="Shape" fill="#1A2A56" sketch:type="MSShapeGroup"></path>
            <path d="M33,58 L33,58 C36.3137085,58 39,55.3137085 39,52 C39,48.6862915 36.3137085,46 33,46 C29.6862915,46 27,48.6862915 27,52 C27,55.3137085 29.6862915,58 33,58 L33,58 Z M33,62 L33,62 C27.4771525,62 23,57.5228475 23,52 C23,46.4771525 27.4771525,42 33,42 C38.5228475,42 43,46.4771525 43,52 C43,57.5228475 38.5228475,62 33,62 L33,62 Z" id="Shape" fill="#1A2A56" sketch:type="MSShapeGroup"></path>
            <path d="M75,79 L75,79 C78.3137085,79 81,76.3137085 81,73 C81,69.6862915 78.3137085,67 75,67 C71.6862915,67 69,69.6862915 69,73 C69,76.3137085 71.6862915,79 75,79 L75,79 Z M75,83 L75,83 C69.4771525,83 65,78.5228475 65,73 C65,67.4771525 69.4771525,63 75,63 C80.5228475,63 85,67.4771525 85,73 C85,78.5228475 80.5228475,83 75,83 L75,83 Z" id="Shape" fill="#1A2A56" sketch:type="MSShapeGroup"></path>
            <path d="M33,100 L33,100 C36.3137085,100 39,97.3137085 39,94 C39,90.6862915 36.3137085,88 33,88 C29.6862915,88 27,90.6862915 27,94 C27,97.3137085 29.6862915,100 33,100 L33,100 Z M33,104 L33,104 C27.4771525,104 23,99.5228475 23,94 C23,88.4771525 27.4771525,84 33,84 C38.5228475,84 43,88.4771525 43,94 C43,99.5228475 38.5228475,104 33,104 L33,104 Z" id="Shape" fill="#1A2A56" sketch:type="MSShapeGroup"></path>
            <path d="M75,124 L75,124 C78.3137085,124 81,121.313708 81,118 C81,114.686292 78.3137085,112 75,112 C71.6862915,112 69,114.686292 69,118 C69,121.313708 71.6862915,124 75,124 L75,124 Z M75,128 L75,128 C69.4771525,128 65,123.522847 65,118 C65,112.477153 69.4771525,108 75,108 C80.5228475,108 85,112.477153 85,118 C85,123.522847 80.5228475,128 75,128 L75,128 Z" id="Shape" fill="#1A2A56" sketch:type="MSShapeGroup"></path>
        </g>
    </g>
</svg>