<svg xmlns="http://www.w3.org/2000/svg" width="42" height="61" viewBox="0 0 42 61">
  <g fill="none" fill-rule="evenodd">
    <path fill="#F5F5F3" fill-rule="nonzero" d="M37,8.7722 L37,7.0082 L5,7.0082 L5,8.7722 C5,10.1422 4.226,11.3952 3,12.0082 C1.774,12.6212 1,13.8742 1,15.2442 L1,57.0082 C1,58.1122 1.896,59.0082 3,59.0082 L39,59.0082 C40.104,59.0082 41,58.1122 41,57.0082 L41,15.2442 C41,13.8742 40.226,12.6212 39,12.0082 C37.774,11.3952 37,10.1422 37,8.7722"/>
    <path fill="#1A2A56" fill-rule="nonzero" d="M38,8.7722 C38,9.76369087 38.5602328,10.6702824 39.4472136,11.1137728 C41.0118021,11.896067 42,13.4952093 42,15.2442 L42,57.0082 C42,58.6644847 40.6562847,60.0082 39,60.0082 L3,60.0082 C1.34371525,60.0082 0,58.6644847 0,57.0082 L0,15.2442 C0,13.4952093 0.988197928,11.896067 2.5527864,11.1137728 C3.43976724,10.6702824 4,9.76369087 4,8.7722 L4,7.0082 C4,6.45591525 4.44771525,6.0082 5,6.0082 L37,6.0082 C37.5522847,6.0082 38,6.45591525 38,7.0082 L38,8.7722 Z M6,8.0082 L6,8.7722 C6,10.5211907 5.01180207,12.120333 3.4472136,12.9026272 C2.56023276,13.3461176 2,14.2527091 2,15.2442 L2,57.0082 C2,57.5599153 2.44828475,58.0082 3,58.0082 L39,58.0082 C39.5517153,58.0082 40,57.5599153 40,57.0082 L40,15.2442 C40,14.2527091 39.4397672,13.3461176 38.5527864,12.9026272 C36.9881979,12.120333 36,10.5211907 36,8.7722 L36,8.0082 L6,8.0082 Z"/>
    <path fill="#1A2A56" fill-rule="nonzero" d="M1 8.008L5 8.008C5.55228475 8.008 6 7.56028475 6 7.008 6 6.45571525 5.55228475 6.008 5 6.008L1 6.008C.44771525 6.008 0 6.45571525 0 7.008 0 7.56028475.44771525 8.008 1 8.008zM37 8.008L41 8.008C41.5522847 8.008 42 7.56028475 42 7.008 42 6.45571525 41.5522847 6.008 41 6.008L37 6.008C36.4477153 6.008 36 6.45571525 36 7.008 36 7.56028475 36.4477153 8.008 37 8.008z"/>
    <path fill="#31BEB7" fill-rule="nonzero" d="M39,7.008 L3,7.008 L3,4.008 C3,2.351 4.343,1.008 6,1.008 L36,1.008 C37.657,1.008 39,2.351 39,4.008 L39,7.008 Z"/>
    <path fill="#1A2A56" fill-rule="nonzero" d="M38,4.008 C38,2.90328475 37.1047153,2.008 36,2.008 L6,2.008 C4.89528475,2.008 4,2.90328475 4,4.008 L4,6.008 L38,6.008 L38,4.008 Z M39,8.008 L3,8.008 C2.44771525,8.008 2,7.56028475 2,7.008 L2,4.008 C2,1.79871525 3.79071525,0.008 6,0.008 L36,0.008 C38.2092847,0.008 40,1.79871525 40,4.008 L40,7.008 C40,7.56028475 39.5522847,8.008 39,8.008 Z"/>
    <path fill="#1A2A56" fill-rule="nonzero" d="M8 1.008L8 3.008C8 3.56028475 8.44771525 4.008 9 4.008 9.55228475 4.008 10 3.56028475 10 3.008L10 1.008C10 .45571525 9.55228475.008 9 .008 8.44771525.008 8 .45571525 8 1.008zM14 1.008L14 3.008C14 3.56028475 14.4477153 4.008 15 4.008 15.5522847 4.008 16 3.56028475 16 3.008L16 1.008C16 .45571525 15.5522847.008 15 .008 14.4477153.008 14 .45571525 14 1.008zM20 1.008L20 3.008C20 3.56028475 20.4477153 4.008 21 4.008 21.5522847 4.008 22 3.56028475 22 3.008L22 1.008C22 .45571525 21.5522847.008 21 .008 20.4477153.008 20 .45571525 20 1.008zM26 1.008L26 3.008C26 3.56028475 26.4477153 4.008 27 4.008 27.5522847 4.008 28 3.56028475 28 3.008L28 1.008C28 .45571525 27.5522847.008 27 .008 26.4477153.008 26 .45571525 26 1.008zM32 1.008L32 3.008C32 3.56028475 32.4477153 4.008 33 4.008 33.5522847 4.008 34 3.56028475 34 3.008L34 1.008C34 .45571525 33.5522847.008 33 .008 32.4477153.008 32 .45571525 32 1.008zM1 49.008C.44771525 49.008 0 48.5602847 0 48.008L0 26.008C0 25.4557153.44771525 25.008 1 25.008L41 25.008C41.5522847 25.008 42 25.4557153 42 26.008L42 48.008C42 48.5602847 41.5522847 49.008 41 49.008L1 49.008zM40 47.008L40 27.008 2 27.008 2 47.008 40 47.008z"/>
    <path fill="#31BEB7" fill-rule="nonzero" d="M21,42.008 L12,42.008 C9.238,42.008 7,39.769 7,37.008 C7,34.247 9.238,32.008 12,32.008 L21,32.008 L21,42.008 Z"/>
    <path stroke="#1A2A56" stroke-width="2" d="M21,42.008 L12,42.008 C9.238,42.008 7,39.769 7,37.008 C7,34.247 9.238,32.008 12,32.008 L21,32.008 L21,42.008 Z" stroke-linecap="round" stroke-linejoin="round"/>
    <path fill="#31BEB7" fill-rule="nonzero" d="M21,32.008 L30,32.008 C32.762,32.008 35,34.247 35,37.008 C35,39.769 32.762,42.008 30,42.008 L21,42.008 L21,32.008 Z"/>
    <path stroke="#1A2A56" stroke-width="2" d="M21,32.008 L30,32.008 C32.762,32.008 35,34.247 35,37.008 C35,39.769 32.762,42.008 30,42.008 L21,42.008 L21,32.008 Z" stroke-linecap="round" stroke-linejoin="round"/>
  </g>
</svg>
