<svg xmlns="http://www.w3.org/2000/svg" width="50" height="61" viewBox="0 0 50 61">
  <g fill="none" fill-rule="evenodd">
    <circle cx="25" cy="30" r="25" fill="#F5F5F5"/>
    <path fill="#F5F5F3" fill-rule="nonzero" d="M41,7.0082 L9,7.0082 L9,8.7722 C9,10.1422 8.226,11.3952 7,12.0082 C5.774,12.6212 5,13.8742 5,15.2442 L5,57.0082 C5,58.1122 5.896,59.0082 7,59.0082 L43,59.0082 C44.104,59.0082 45,58.1122 45,57.0082 L45,15.2442 C45,13.8742 44.226,12.6212 43,12.0082 C41.774,11.3952 41,10.1422 41,8.7722 L41,7.0082 Z"/>
    <path fill="#FFFFFF" fill-rule="nonzero" d="M27,59.0082 L7,59.0082 C5.896,59.0082 5,58.1122 5,57.0082 L5,15.2442 C5,13.8742 5.774,12.6212 7,12.0082 C8.226,11.3952 9,10.1422 9,8.7722 L9,7.0082 L27,7.0082 L13,7.0082 L13,8.7722 C13,10.1422 12.226,11.3952 11,12.0082 C9.774,12.6212 9,13.8742 9,15.2442 L9,57.0082 C9,58.1122 9.896,59.0082 11,59.0082 L27,59.0082 Z"/>
    <path fill="#1A2A56" fill-rule="nonzero" d="M42,8.7722 C42,9.76369087 42.5602328,10.6702824 43.4472136,11.1137728 C45.0118021,11.896067 46,13.4952093 46,15.2442 L46,57.0082 C46,58.6644847 44.6562847,60.0082 43,60.0082 L7,60.0082 C5.34371525,60.0082 4,58.6644847 4,57.0082 L4,15.2442 C4,13.4952093 4.98819793,11.896067 6.5527864,11.1137728 C7.43976724,10.6702824 8,9.76369087 8,8.7722 L8,7.0082 C8,6.45591525 8.44771525,6.0082 9,6.0082 L41,6.0082 C41.5522847,6.0082 42,6.45591525 42,7.0082 L42,8.7722 Z M10,8.0082 L10,8.7722 C10,10.5211907 9.01180207,12.120333 7.4472136,12.9026272 C6.56023276,13.3461176 6,14.2527091 6,15.2442 L6,57.0082 C6,57.5599153 6.44828475,58.0082 7,58.0082 L43,58.0082 C43.5517153,58.0082 44,57.5599153 44,57.0082 L44,15.2442 C44,14.2527091 43.4397672,13.3461176 42.5527864,12.9026272 C40.9881979,12.120333 40,10.5211907 40,8.7722 L40,8.0082 L10,8.0082 Z"/>
    <path fill="#1A2A56" fill-rule="nonzero" d="M5 8.008L9 8.008C9.55228475 8.008 10 7.56028475 10 7.008 10 6.45571525 9.55228475 6.008 9 6.008L5 6.008C4.44771525 6.008 4 6.45571525 4 7.008 4 7.56028475 4.44771525 8.008 5 8.008zM41 8.008L45 8.008C45.5522847 8.008 46 7.56028475 46 7.008 46 6.45571525 45.5522847 6.008 45 6.008L41 6.008C40.4477153 6.008 40 6.45571525 40 7.008 40 7.56028475 40.4477153 8.008 41 8.008z"/>
    <path fill="#31BEB7" fill-rule="nonzero" d="M43,7.008 L7,7.008 L7,4.008 C7,2.351 8.343,1.008 10,1.008 L40,1.008 C41.657,1.008 43,2.351 43,4.008 L43,7.008 Z"/>
    <path fill="#1A2A56" fill-rule="nonzero" d="M42,4.008 C42,2.90328475 41.1047153,2.008 40,2.008 L10,2.008 C8.89528475,2.008 8,2.90328475 8,4.008 L8,6.008 L42,6.008 L42,4.008 Z M43,8.008 L7,8.008 C6.44771525,8.008 6,7.56028475 6,7.008 L6,4.008 C6,1.79871525 7.79071525,0.008 10,0.008 L40,0.008 C42.2092847,0.008 44,1.79871525 44,4.008 L44,7.008 C44,7.56028475 43.5522847,8.008 43,8.008 Z"/>
    <path fill="#1A2A56" fill-rule="nonzero" d="M12 1.008L12 3.008C12 3.56028475 12.4477153 4.008 13 4.008 13.5522847 4.008 14 3.56028475 14 3.008L14 1.008C14 .45571525 13.5522847.008 13 .008 12.4477153.008 12 .45571525 12 1.008zM18 1.008L18 3.008C18 3.56028475 18.4477153 4.008 19 4.008 19.5522847 4.008 20 3.56028475 20 3.008L20 1.008C20 .45571525 19.5522847.008 19 .008 18.4477153.008 18 .45571525 18 1.008zM24 1.008L24 3.008C24 3.56028475 24.4477153 4.008 25 4.008 25.5522847 4.008 26 3.56028475 26 3.008L26 1.008C26 .45571525 25.5522847.008 25 .008 24.4477153.008 24 .45571525 24 1.008zM30 1.008L30 3.008C30 3.56028475 30.4477153 4.008 31 4.008 31.5522847 4.008 32 3.56028475 32 3.008L32 1.008C32 .45571525 31.5522847.008 31 .008 30.4477153.008 30 .45571525 30 1.008zM36 1.008L36 3.008C36 3.56028475 36.4477153 4.008 37 4.008 37.5522847 4.008 38 3.56028475 38 3.008L38 1.008C38 .45571525 37.5522847.008 37 .008 36.4477153.008 36 .45571525 36 1.008zM5 49.008C4.44771525 49.008 4 48.5602847 4 48.008L4 26.008C4 25.4557153 4.44771525 25.008 5 25.008L45 25.008C45.5522847 25.008 46 25.4557153 46 26.008L46 48.008C46 48.5602847 45.5522847 49.008 45 49.008L5 49.008zM44 47.008L44 27.008 6 27.008 6 47.008 44 47.008z"/>
    <path fill="#31BEB7" fill-rule="nonzero" d="M25,42.008 L16,42.008 C13.238,42.008 11,39.769 11,37.008 C11,34.247 13.238,32.008 16,32.008 L25,32.008 L25,42.008 Z"/>
    <path stroke="#1A2A56" stroke-width="4" d="M25,42.008 L16,42.008 C13.238,42.008 11,39.769 11,37.008 C11,34.247 13.238,32.008 16,32.008 L25,32.008 L25,42.008 Z" stroke-linecap="round"/>
    <path fill="#31BEB7" fill-rule="nonzero" d="M25,32.008 L34,32.008 C36.762,32.008 39,34.247 39,37.008 C39,39.769 36.762,42.008 34,42.008 L25,42.008 L25,32.008 Z"/>
    <path stroke="#1A2A56" stroke-width="4" d="M25,32.008 L34,32.008 C36.762,32.008 39,34.247 39,37.008 C39,39.769 36.762,42.008 34,42.008 L25,42.008 L25,32.008 Z" stroke-linecap="round"/>
  </g>
</svg>
