<svg xmlns="http://www.w3.org/2000/svg" width="130" height="128" viewBox="0 0 130 128">
  <g fill="none" fill-rule="evenodd">
    <circle cx="65" cy="70" r="54" fill="#FFFFFF"/>
    <path fill="#31BEB7" fill-rule="nonzero" d="M88.8631256,103.919237 C96.701851,105.43868 105.319331,108.220576 112.781964,113.249742 L111.51712,117.044275 C111.306312,117.044275 94.8633342,114.936201 84.3229637,114.936201 C73.6576554,114.936201 67.9805232,110.715437 65.3502969,107.838882 C62.7200706,110.715437 57.0429384,114.936201 46.3776301,114.936201 C35.8372596,114.936201 19.3942817,117.044275 19.1834742,117.044275 L17.7078224,113.249742 C25.2229169,108.185222 33.9091521,105.399678 41.8041255,103.88738 C33.0220713,101.338004 24.5097095,96.3563878 17.2862076,86.6880083 C10.1187556,77.2016748 0.843229637,70.2450303 0.843229637,70.2450303 L2.74049632,66.450497 C3.01863361,66.450497 18.8930683,71.2211291 37.5330574,81.7307513 C32.0949683,74.6618531 27.8370366,66.4923312 25.2968891,56.3317413 C21.0807409,39.8887634 14.9673261,25.1322447 14.9673261,25.1322447 L18.551052,23.0241706 C21.2915483,26.3970892 24.6644669,29.5592003 28.2481928,32.9321189 C35.2405818,39.5360417 43.8436266,47.5716588 50.7595035,60.1719029 C50.4857435,51.3236484 52.4377203,41.9460041 57.1288079,27.8727411 C61.3449561,14.8026817 63.2422228,0.889392668 63.2422228,0.889392668 L67.458371,0.889392668 C67.458371,1.10020008 69.3556377,14.8026817 73.7825933,27.8727411 C78.3107623,41.4572482 80.2711188,50.956599 80.2820889,59.3459248 C87.138214,47.0981352 95.5744834,39.2171224 102.452401,32.7213115 C106.036127,29.3483929 109.409045,26.1862818 112.149542,22.8133632 L115.733268,24.9214373 C115.733268,25.1322447 109.409045,39.677956 105.403705,56.1209339 C102.81052,66.5862879 98.4270678,74.9358719 92.8253605,82.1349553 C111.612845,71.4904457 127.68026,66.6613044 127.960097,66.6613044 L129.857364,70.4558377 C129.857364,70.4558377 120.581838,77.4124823 113.414386,86.8988157 C106.181743,96.4681592 97.6569755,101.397603 88.8631256,103.919237 L88.8631256,103.919237 Z"/>
    <path fill="#75F2D6" d="M73.8981553,106.392817 C72.3508604,106.320875 70.9633614,106.293097 69.7772525,106.293097 C72.3069414,108.401171 76.733897,110.720053 84.3229637,110.720053 C89.3823416,110.720053 95.4957564,111.141668 100.765942,111.563283 C100.424318,111.435174 100.081987,111.310066 99.7391196,111.187892 C95.8487173,110.922899 91.8322825,110.720053 88.3229637,110.720053 C80.8533839,110.720053 76.4471266,108.473616 73.8981553,106.392817 Z"/>
    <path fill="#44EACC" d="M60.8242937,106.374943 C54.083537,106.643198 44.3199134,107.690578 35.0950835,111.19316 C33.4031765,111.308809 31.7359199,111.436046 30.1454595,111.563283 C41.739867,106.92552 54.3883116,106.293097 60.9233413,106.293097 C60.8906432,106.320346 60.8576281,106.347629 60.8242937,106.374943 Z M67.3559218,21.2751445 L67.3559218,21.2751445 C66.6414746,23.9047544 65.8306144,26.6265737 64.9233413,29.3483929 C55.3278706,58.1348049 57.39789,65.5674385 67.3037104,93.0069365 C66.7215189,94.5875671 66.1248391,96.3460602 65.3502969,98.2824158 C64.9286821,97.4391861 64.5070673,96.5959565 64.2962598,95.7527269 C53.545082,66.0288821 51.0153931,59.0722376 60.9233413,29.3483929 C62.820608,23.6565929 64.2962598,17.9647928 65.3502969,13.1162224 C65.9103485,15.5804495 66.5894311,18.3422541 67.3559218,21.2751445 Z M28.672966,39.1001038 L28.672966,39.1001038 C30.2971382,43.9939701 32.0119719,49.6343567 33.5130373,55.4885117 C37.9523087,73.0606276 47.5851384,84.1407956 60.1330235,94.5676795 C60.6561571,96.1510534 61.1334887,97.6155308 61.5557635,98.914838 C46.3776301,87.1096231 34.5724151,75.5152156 29.5130373,55.4885117 C27.4049632,47.2670227 24.8752743,39.4671486 22.7672002,33.5645411 C23.6104298,34.4077707 24.4536595,35.040193 25.2968891,35.8834226 C26.4073863,36.9338929 27.534976,38.0014557 28.672966,39.1001038 Z M12.0160223,74.2503711 C14.0581446,75.06722 16.3356931,76.0214009 18.7945322,77.117521 C20.7686491,79.2292959 22.809876,81.5978192 24.6591261,84.1583193 C34.4547148,97.3446888 47.1119597,100.936093 59.3215881,102.002343 C59.4339917,102.097248 59.5462956,102.192386 59.6584968,102.287757 C46.1668226,101.655334 31.6211114,98.914838 20.6591261,84.1583193 C17.9186298,80.363786 14.7565187,76.9908674 12.0160223,74.2503711 Z M105.99615,39.0641227 C99.091584,45.583654 91.8113771,53.3602554 85.7932748,65.3964599 C81.6768627,73.6292841 77.4085022,85.8127668 74.5362404,94.5937072 C72.7932377,96.0413757 70.9940676,97.4765423 69.1448303,98.914838 C71.8853266,90.2717342 76.9447044,75.0936007 81.7932748,65.3964599 C88.7499193,51.4831709 97.3930231,43.2616819 105.192897,36.09423 C106.246934,35.2510004 107.090164,34.4077707 107.933394,33.5645411 C107.316691,35.2296378 106.663906,37.0751466 105.99615,39.0641227 Z M115.896175,77.1207723 L115.896175,77.1207723 C104.470481,82.2096014 89.1333652,90.3372958 75.3133771,101.850358 C73.881599,101.960791 72.4560594,102.032763 71.0420969,102.076949 C87.9066897,87.9528527 107.090164,78.8881341 118.684571,74.2503711 C117.790238,75.1447043 116.851004,76.106389 115.896175,77.1207723 Z"/>
    <path fill="#1A2A56" fill-rule="nonzero" d="M73.8353051,95.1727638 C86.7404114,84.5675149 96.6623148,73.4009268 101.187556,55.4885117 C103.295631,47.0562153 105.825319,39.2563412 107.933394,33.5645411 C107.090164,34.4077707 106.246934,35.2510004 105.192897,36.09423 C97.3930231,43.2616819 88.7499193,51.4831709 81.7932748,65.3964599 C78.3129333,72.3571429 74.7239737,82.1418964 71.961999,90.3066063 L86.7411777,67.4630893 L90.2810557,69.753301 L73.8353051,95.1727638 Z M58.659332,90.1649194 C55.9081611,82.0620392 52.3544621,72.2907463 48.907319,65.3964599 C41.739867,51.4831709 33.0967633,43.2616819 25.2968891,35.8834226 C24.4536595,35.040193 23.6104298,34.4077707 22.7672002,33.5645411 C24.8752743,39.4671486 27.4049632,47.2670227 29.5130373,55.4885117 C34.0413872,73.4132302 43.9738149,84.5828516 56.891885,95.194616 L40.4242602,69.7460281 L43.9641382,67.4553948 L58.659332,90.1649194 Z M67.458371,92.5906157 C76.733897,67.9261488 79.6852007,59.4938525 69.5664451,29.3483929 C67.8799858,23.4457855 66.4043339,17.7539854 65.3502969,13.1162224 C64.2962598,17.9647928 62.820608,23.6565929 60.9233413,29.3483929 C51.347757,58.0751459 53.38936,65.5365389 63.2422228,92.8365912 L63.2422228,55.9101265 L67.458371,55.9101265 L67.458371,92.5906157 Z M67.458371,109.801318 L67.458371,127.584646 L63.2422228,127.584646 L63.2422228,109.801318 C60.0821356,112.318622 54.7766344,114.936201 46.3776301,114.936201 C35.8372596,114.936201 19.3942817,117.044275 19.1834742,117.044275 L17.7078224,113.249742 C25.2229169,108.185222 33.9091521,105.399678 41.8041255,103.88738 C33.0220713,101.338004 24.5097095,96.3563878 17.2862076,86.6880083 C10.1187556,77.2016748 0.843229637,70.2450303 0.843229637,70.2450303 L2.74049632,66.450497 C3.01863361,66.450497 18.8930683,71.2211291 37.5330574,81.7307513 C32.0949683,74.6618531 27.8370366,66.4923312 25.2968891,56.3317413 C21.0807409,39.8887634 14.9673261,25.1322447 14.9673261,25.1322447 L18.551052,23.0241706 C21.2915483,26.3970892 24.6644669,29.5592003 28.2481928,32.9321189 C35.2405818,39.5360417 43.8436266,47.5716588 50.7595035,60.1719029 C50.4857435,51.3236484 52.4377203,41.9460041 57.1288079,27.8727411 C61.3449561,14.8026817 63.2422228,0.889392668 63.2422228,0.889392668 L67.458371,0.889392668 C67.458371,1.10020008 69.3556377,14.8026817 73.7825933,27.8727411 C78.3107623,41.4572482 80.2711188,50.956599 80.2820889,59.3459248 C87.138214,47.0981352 95.5744834,39.2171224 102.452401,32.7213115 C106.036127,29.3483929 109.409045,26.1862818 112.149542,22.8133632 L115.733268,24.9214373 C115.733268,25.1322447 109.409045,39.677956 105.403705,56.1209339 C102.81052,66.5862879 98.4270678,74.9358719 92.8253605,82.1349553 C111.612845,71.4904457 127.68026,66.6613044 127.960097,66.6613044 L129.857364,70.4558377 C129.857364,70.4558377 120.581838,77.4124823 113.414386,86.8988157 C106.181743,96.4681592 97.6569755,101.397603 88.8631256,103.919237 C96.701851,105.43868 105.319331,108.220576 112.781964,113.249742 L111.51712,117.044275 C111.306312,117.044275 94.8633342,114.936201 84.3229637,114.936201 C75.9239594,114.936201 70.6184582,112.318622 67.458371,109.801318 Z M72.7995161,106.347975 C71.8517478,106.393765 70.9081053,106.427167 69.9698913,106.451022 C72.5295046,108.515284 76.9229829,110.720053 84.3229637,110.720053 C89.3823416,110.720053 95.4957564,111.141668 100.765942,111.563283 C90.5829231,107.744651 79.772495,106.592509 72.7995161,106.347975 Z M60.7309223,106.450848 C59.7528576,106.425867 58.7688932,106.390441 57.7805052,106.341305 C50.8075426,106.554418 40.0888858,107.585912 30.1454595,111.563283 C35.4156448,111.141668 41.5290596,110.720053 46.5884375,110.720053 C53.7830663,110.720053 58.1714677,108.51516 60.7309223,106.450848 Z M12.0160223,74.2503711 C14.7565187,76.9908674 17.9186298,80.363786 20.6591261,84.1583193 C31.6211114,98.914838 46.1668226,101.655334 59.6584968,102.287757 C42.7939041,87.9528527 23.6104298,78.8881341 12.0160223,74.2503711 Z M118.684571,74.2503711 C107.090164,78.8881341 87.9066897,87.9528527 71.0420969,102.076949 C84.5337711,101.655334 99.0794824,98.7040306 110.041468,83.9475119 C112.781964,80.363786 115.944075,76.9908674 118.684571,74.2503711 Z M63.2422228,39.0455338 L67.458371,39.0455338 L67.458371,43.2616819 L63.2422228,43.2616819 L63.2422228,39.0455338 Z M63.2422228,47.4778301 L67.458371,47.4778301 L67.458371,51.6939783 L63.2422228,51.6939783 L63.2422228,47.4778301 Z"/>
  </g>
</svg>
