<svg xmlns="http://www.w3.org/2000/svg" width="60" height="61" viewBox="0 0 60 61">
  <g fill="none" fill-rule="evenodd" transform="translate(-1)">
    <circle cx="31" cy="31" r="25" fill="#F5F5F5"/>
    <path fill="#F5F5F3" fill-rule="nonzero" d="M60,59.008 L2,59.008 C5.11,54.031 10.565,51.008 16.434,51.008 L60,51.008 L60,59.008 Z"/>
    <polygon fill="#31BEB7" fill-rule="nonzero" points="25 39.008 29 39.008 29 31.008 25 31.008"/>
    <polygon fill="#31BEB7" fill-rule="nonzero" points="33 37.008 37 37.008 37 31.008 33 31.008"/>
    <polygon fill="#31BEB7" fill-rule="nonzero" points="26 7.008 36 7.008 36 1.008 26 1.008"/>
    <path fill="#31BEB7" fill-rule="nonzero" d="M44,18.008 C44,20.769 41.761,23.008 39,23.008 C36.239,23.008 34,20.769 34,18.008 C34,15.247 36.239,13.008 39,13.008 C41.761,13.008 44,15.247 44,18.008"/>
    <path fill="#F5F5F3" fill-rule="nonzero" d="M34,18.008 C34,15.247 36.239,13.008 39,13.008 L39,9.008 C39,7.904 38.104,7.008 37,7.008 L25,7.008 C23.896,7.008 23,7.904 23,9.008 L23,29.008 C23,30.112 23.896,31.008 25,31.008 L37,31.008 C38.104,31.008 39,30.112 39,29.008 L39,23.008 C36.239,23.008 34,20.769 34,18.008"/>
    <path fill="#31BEB7" fill-rule="nonzero" d="M60,43.008 C60,44.665 58.657,46.008 57,46.008 C55.343,46.008 54,44.665 54,43.008 C54,41.351 55.343,40.008 57,40.008 C58.657,40.008 60,41.351 60,43.008"/>
    <path fill="#F5F5F3" fill-rule="nonzero" d="M54,43.008 C54,41.704 54.837,40.605 56,40.192 L56,26.62 C56,24.398 54.771,22.358 52.807,21.318 L43.75,16.523 C43.898,16.995 44,17.487 44,18.008 C44,20.213 42.564,22.063 40.583,22.728 L46.483,25.409 C48.625,26.383 50,28.519 50,30.871 L50,51.008 L56,51.008 L56,45.824 C54.837,45.411 54,44.312 54,43.008"/>
    <polygon fill="#31BEB7" fill-rule="nonzero" points="21 51.008 41 51.008 41 47.008 21 47.008"/>
    <path fill="#FFFFFF" fill-rule="nonzero" d="M55,51.008 L50,51.008 L50,30.871 C50,28.519 48.625,26.383 46.483,25.409 L43,23.8263012 L43,23.008 C42.2780057,23.008 41.5917062,22.8548952 40.971804,22.579388 C42.7491476,21.8146672 44,20.065948 44,18.008 C44,17.487 43.898,16.995 43.75,16.523 L47.9457378,18.7443275 C47.6667907,20.6179324 46.3390134,22.1385255 44.583,22.728 L50.483,25.409 C52.625,26.383 54,28.519 54,30.871 L54,51.008 L55,51.008 Z M33,31.008 L25,31.008 C23.896,31.008 23,30.112 23,29.008 L23,9.008 C23,7.904 23.896,7.008 25,7.008 L33,7.008 L29,7.008 C27.896,7.008 27,7.904 27,9.008 L27,29.008 C27,30.112 27.896,31.008 29,31.008 L33,31.008 Z M33,59.008 L2,59.008 C5.11,54.031 10.565,51.008 16.434,51.008 L40.217,51.008 L20.434,51.008 C14.565,51.008 9.11,54.031 6,59.008 L33,59.008 Z"/>
    <path fill="#1A2A56" fill-rule="nonzero" d="M59 52.008L16.434 52.008C11.5397765 52.008 6.95172908 54.2413632 3.93333556 58.008L59 58.008 59 52.008zM60 60.008L2 60.008C1.21460501 60.008.735755471 59.1441289 1.15195384 58.4780776 4.44455055 53.2088642 10.2199282 50.008 16.434 50.008L60 50.008C60.5522847 50.008 61 50.4557153 61 51.008L61 59.008C61 59.5602847 60.5522847 60.008 60 60.008zM25 40.008C24.4477153 40.008 24 39.5602847 24 39.008L24 31.008C24 30.4557153 24.4477153 30.008 25 30.008L29 30.008C29.5522847 30.008 30 30.4557153 30 31.008L30 39.008C30 39.5602847 29.5522847 40.008 29 40.008L25 40.008zM28 38.008L28 32.008 26 32.008 26 38.008 28 38.008zM33 38.008C32.4477153 38.008 32 37.5602847 32 37.008L32 31.008C32 30.4557153 32.4477153 30.008 33 30.008L37 30.008C37.5522847 30.008 38 30.4557153 38 31.008L38 37.008C38 37.5602847 37.5522847 38.008 37 38.008L33 38.008zM36 36.008L36 32.008 34 32.008 34 36.008 36 36.008zM26 8.008C25.4477153 8.008 25 7.56028475 25 7.008L25 1.008C25 .45571525 25.4477153.008 26 .008L36 .008C36.5522847.008 37 .45571525 37 1.008L37 7.008C37 7.56028475 36.5522847 8.008 36 8.008L26 8.008zM35 6.008L35 2.008 27 2.008 27 6.008 35 6.008zM43 18.008C43 15.7992847 41.2087153 14.008 39 14.008 36.7912847 14.008 35 15.7992847 35 18.008 35 20.2167153 36.7912847 22.008 39 22.008 41.2087153 22.008 43 20.2167153 43 18.008zM45 18.008C45 21.3212847 42.3132847 24.008 39 24.008 35.6867153 24.008 33 21.3212847 33 18.008 33 14.6947153 35.6867153 12.008 39 12.008 42.3132847 12.008 45 14.6947153 45 18.008z"/>
    <path fill="#1A2A56" fill-rule="nonzero" d="M35 18.008C35 20.2167153 36.7912847 22.008 39 22.008 39.5522847 22.008 40 22.4557153 40 23.008L40 29.008C40 30.6642847 38.6562847 32.008 37 32.008L25 32.008C23.3437153 32.008 22 30.6642847 22 29.008L22 9.008C22 7.35171525 23.3437153 6.008 25 6.008L37 6.008C38.6562847 6.008 40 7.35171525 40 9.008L40 13.008C40 13.5602847 39.5522847 14.008 39 14.008 36.7912847 14.008 35 15.7992847 35 18.008zM33 18.008C33 15.0354206 35.1625743 12.5671757 38 12.0909882L38 9.008C38 8.45628475 37.5517153 8.008 37 8.008L25 8.008C24.4482847 8.008 24 8.45628475 24 9.008L24 29.008C24 29.5597153 24.4482847 30.008 25 30.008L37 30.008C37.5517153 30.008 38 29.5597153 38 29.008L38 23.9250118C35.1625743 23.4488243 33 20.9805794 33 18.008zM59 43.008C59 41.9032847 58.1047153 41.008 57 41.008 55.8952847 41.008 55 41.9032847 55 43.008 55 44.1127153 55.8952847 45.008 57 45.008 58.1047153 45.008 59 44.1127153 59 43.008zM61 43.008C61 45.2172847 59.2092847 47.008 57 47.008 54.7907153 47.008 53 45.2172847 53 43.008 53 40.7987153 54.7907153 39.008 57 39.008 59.2092847 39.008 61 40.7987153 61 43.008z"/>
    <path fill="#1A2A56" fill-rule="nonzero" d="M55 43.008C55 43.8556943 55.538616 44.598973 56.334642 44.8816547 56.7335118 45.0232997 57 45.4007265 57 45.824L57 51.008C57 51.5602847 56.5522847 52.008 56 52.008L50 52.008C49.4477153 52.008 49 51.5602847 49 51.008L49 30.871C49 28.9108928 47.8539621 27.1309263 46.0693017 26.319414L40.1693017 23.638414C39.3427478 23.2628223 39.4040751 22.0689123 40.264763 21.7799888 41.8894136 21.2346114 43 19.7310976 43 18.008 43 17.6382268 42.932095 17.2568401 42.7958082 16.8221957 42.5284793 15.9696331 43.4282436 15.2211549 44.2178967 15.6392168L53.2749704 20.4342559C55.5664645 21.6476743 57 24.0278231 57 26.62L57 40.192C57 40.6152735 56.7335118 40.9927003 56.334642 41.1343453 55.538616 41.417027 55 42.1603057 55 43.008zM53 43.008C53 41.5546728 53.785885 40.2561798 55 39.5563386L55 26.62C55 24.7687282 53.9760231 23.0685839 52.3391033 22.2017832L44.9923153 18.3122117C44.9050882 20.0353772 44.0806746 21.5883974 42.7944972 22.634518L46.896931 24.4986917C49.3956542 25.6348992 51 28.1266857 51 30.871L51 50.008 55 50.008 55 46.4596614C53.785885 45.7598202 53 44.4613272 53 43.008zM21 52.008C20.4477153 52.008 20 51.5602847 20 51.008L20 47.008C20 46.4557153 20.4477153 46.008 21 46.008L41 46.008C41.5522847 46.008 42 46.4557153 42 47.008L42 51.008C42 51.5602847 41.5522847 52.008 41 52.008L21 52.008zM22 50.008L40 50.008 40 48.008 22 48.008 22 50.008zM23 14.008L26 14.008C26.5522847 14.008 27 13.5602847 27 13.008 27 12.4557153 26.5522847 12.008 26 12.008L23 12.008C22.4477153 12.008 22 12.4557153 22 13.008 22 13.5602847 22.4477153 14.008 23 14.008zM23 20.008L27 20.008C27.5522847 20.008 28 19.5602847 28 19.008 28 18.4557153 27.5522847 18.008 27 18.008L23 18.008C22.4477153 18.008 22 18.4557153 22 19.008 22 19.5602847 22.4477153 20.008 23 20.008zM23 26.008L26 26.008C26.5522847 26.008 27 25.5602847 27 25.008 27 24.4557153 26.5522847 24.008 26 24.008L23 24.008C22.4477153 24.008 22 24.4557153 22 25.008 22 25.5602847 22.4477153 26.008 23 26.008z"/>
  </g>
</svg>
