<?xml version="1.0" encoding="UTF-8" standalone="no"?>
<svg width="50px" height="50px" viewBox="0 0 50 50" version="1.1" xmlns="http://www.w3.org/2000/svg" xmlns:xlink="http://www.w3.org/1999/xlink" xmlns:sketch="http://www.bohemiancoding.com/sketch/ns">
    <!-- Generator: Sketch 3.4.4 (17248) - http://www.bohemiancoding.com/sketch -->
    <title>Shape + Oval + Shape</title>
    <desc>Created with Sketch.</desc>
    <defs></defs>
    <g id="Page-1" stroke="none" stroke-width="1" fill="none" fill-rule="evenodd" sketch:type="MSPage">
        <g id="v" sketch:type="MSArtboardGroup" transform="translate(-597.000000, -247.000000)" fill="#FFFFFF">
            <g id="Shape-+-Oval-+-Shape" sketch:type="MSLayerGroup" transform="translate(597.000000, 247.000000)">
                <path d="M25.6,18.4745098 C22.1,18.4745098 19.2,21.3803922 19.2,25 C19.2,28.6196078 22.05,31.5254902 25.6,31.5254902 C29.15,31.5254902 32,28.5686275 32,25 C32,21.4313725 29.1,18.4745098 25.6,18.4745098 L25.6,18.4745098 Z M25.6,29.1803922 C23.35,29.1803922 21.5,27.2941176 21.5,25 C21.5,22.7058824 23.35,20.8196078 25.6,20.8196078 C27.85,20.8196078 29.7,22.7058824 29.7,25 C29.7,27.2941176 27.85,29.1803922 25.6,29.1803922 L25.6,29.1803922 Z" id="Shape" sketch:type="MSShapeGroup"></path>
                <ellipse id="Oval" sketch:type="MSShapeGroup" cx="32.25" cy="18.3215686" rx="1.45" ry="1.47843137"></ellipse>
                <path d="M36,14.4980392 C34.7,13.1215686 32.85,12.4078431 30.75,12.4078431 L20.45,12.4078431 C16.1,12.4078431 13.2,15.3647059 13.2,19.8 L13.2,30.2509804 C13.2,32.4431373 13.9,34.3294118 15.3,35.7058824 C16.65,37.0313725 18.45,37.6941176 20.5,37.6941176 L30.7,37.6941176 C32.85,37.6941176 34.65,36.9803922 35.95,35.7058824 C37.3,34.3803922 38,32.4941176 38,30.3019608 L38,19.8 C38,17.6588235 37.3,15.8235294 36,14.4980392 L36,14.4980392 Z M35.8,30.3019608 C35.8,31.8823529 35.25,33.1568627 34.35,34.0235294 C33.45,34.8901961 32.2,35.3490196 30.7,35.3490196 L20.5,35.3490196 C19,35.3490196 17.75,34.8901961 16.85,34.0235294 C15.95,33.1058824 15.5,31.8313725 15.5,30.2509804 L15.5,19.8 C15.5,18.2705882 15.95,16.9960784 16.85,16.0784314 C17.7,15.2117647 19,14.7529412 20.5,14.7529412 L30.8,14.7529412 C32.3,14.7529412 33.55,15.2117647 34.45,16.1294118 C35.3,17.0470588 35.8,18.3215686 35.8,19.8 L35.8,30.3019608 L35.8,30.3019608 L35.8,30.3019608 Z" id="Shape" sketch:type="MSShapeGroup"></path>
                <path d="M25,0 C11.1928806,0 0,11.1928806 0,25 C0,38.8071194 11.1928806,50 25,50 C38.8071194,50 50,38.8071194 50,25 C50,11.1928806 38.8071194,0 25,0 L25,0 Z M25,3 C12.8497349,3 3,12.8497349 3,25 C3,37.1502651 12.8497349,47 25,47 C37.1502651,47 47,37.1502651 47,25 C47,12.8497349 37.1502651,3 25,3 L25,3 Z" id="Oval-1" sketch:type="MSShapeGroup"></path>
            </g>
        </g>
    </g>
</svg>