<?xml version="1.0" encoding="UTF-8" standalone="no"?>
<svg width="143px" height="128px" viewBox="0 0 143 128" version="1.1" xmlns="http://www.w3.org/2000/svg" xmlns:xlink="http://www.w3.org/1999/xlink" xmlns:sketch="http://www.bohemiancoding.com/sketch/ns">
    <!-- Generator: Sketch 3.4.4 (17248) - http://www.bohemiancoding.com/sketch -->
    <title>icon-genes</title>
    <desc>Created with Sketch.</desc>
    <defs></defs>
    <g id="Page-1" stroke="none" stroke-width="1" fill="none" fill-rule="evenodd" sketch:type="MSPage">
        <g id="icon-genes" sketch:type="MSLayerGroup">
            <circle id="Oval-Copy-3" fill="#FFFFFF" sketch:type="MSShapeGroup" cx="72" cy="64" r="54"></circle>
            <path d="M104.131397,11.3852633 L134.131397,63.3467875 L120.274991,71.3467875 L90.2749907,19.3852633 L104.131397,11.3852633 L104.131397,11.3852633 Z" id="Rectangle-23-Copy-6" fill="#FFFFFF" sketch:type="MSShapeGroup"></path>
            <path d="M101.928203,101.569219 L88.0717968,109.569219 L40.0717968,26.4307806 L53.9282032,18.4307806 L101.928203,101.569219 Z" id="Rectangle-23-Copy-7" fill="#FFFFFF" sketch:type="MSShapeGroup"></path>
            <path d="M22.7250093,58.3852633 L52.7250093,110.346788 L38.8686028,118.346788 L8.86860279,66.3852633 L22.7250093,58.3852633 L22.7250093,58.3852633 Z" id="Rectangle-23-Copy-8" fill="#FFFFFF" sketch:type="MSShapeGroup"></path>
            <path d="M100.667296,13.3852633 L100.667296,13.3852633 L106.131397,14.8493649 L92.2749907,22.8493649 L93.7390924,17.3852633 L123.739092,69.3467875 L118.274991,67.8826859 L132.131397,59.8826859 L130.667296,65.3467875 L100.667296,13.3852633 Z M104.131397,11.3852633 L134.131397,63.3467875 L120.274991,71.3467875 L90.2749907,19.3852633 L104.131397,11.3852633 L104.131397,11.3852633 Z" id="Shape" fill="#1A2A56" sketch:type="MSShapeGroup"></path>
            <path d="M99.9282032,98.1051178 L99.9282032,98.1051178 L98.4641016,103.569219 L50.4641016,20.4307806 L55.9282032,21.8948822 L42.0717968,29.8948822 L43.5358984,24.4307806 L91.5358984,107.569219 L86.0717968,106.105118 L99.9282032,98.1051178 Z M101.928203,101.569219 L88.0717968,109.569219 L40.0717968,26.4307806 L53.9282032,18.4307806 L101.928203,101.569219 L101.928203,101.569219 Z" id="Shape" fill="#1A2A56" sketch:type="MSShapeGroup"></path>
            <path d="M19.2609076,60.3852633 L19.2609076,60.3852633 L24.7250093,61.8493649 L10.8686028,69.8493649 L12.3327044,64.3852633 L42.3327044,116.346788 L36.8686028,114.882686 L50.7250093,106.882686 L49.2609076,112.346788 L19.2609076,60.3852633 Z M22.7250093,58.3852633 L52.7250093,110.346788 L38.8686028,118.346788 L8.86860279,66.3852633 L22.7250093,58.3852633 L22.7250093,58.3852633 Z" id="Shape" fill="#1A2A56" sketch:type="MSShapeGroup"></path>
            <circle id="Oval-9-Copy-12" fill="#31BEB7" sketch:type="MSShapeGroup" cx="44" cy="17" r="17"></circle>
            <circle id="Oval-9-Copy-13" fill="#31BEB7" sketch:type="MSShapeGroup" cx="17" cy="64" r="17"></circle>
            <circle id="Oval-9-Copy-16" fill="#31BEB7" sketch:type="MSShapeGroup" cx="126" cy="64" r="17"></circle>
            <circle id="Oval-9-Copy-14" fill="#31BEB7" sketch:type="MSShapeGroup" cx="44" cy="111" r="17"></circle>
            <circle id="Oval-9-Copy-15" fill="#31BEB7" sketch:type="MSShapeGroup" cx="100" cy="17" r="17"></circle>
            <circle id="Oval-9-Copy-17" fill="#31BEB7" sketch:type="MSShapeGroup" cx="100" cy="111" r="17"></circle>
            <path d="M44,30 L44,30 C51.1797017,30 57,24.1797017 57,17 C57,9.82029825 51.1797017,4 44,4 C36.8202983,4 31,9.82029825 31,17 C31,24.1797017 36.8202983,30 44,30 L44,30 Z M44,34 L44,34 C34.6111593,34 27,26.3888407 27,17 C27,7.61115925 34.6111593,0 44,0 C53.3888407,0 61,7.61115925 61,17 C61,26.3888407 53.3888407,34 44,34 L44,34 Z" id="Shape" fill="#1A2A56" sketch:type="MSShapeGroup"></path>
            <path d="M17,77 L17,77 C24.1797017,77 30,71.1797017 30,64 C30,56.8202983 24.1797017,51 17,51 C9.82029825,51 4,56.8202983 4,64 C4,71.1797017 9.82029825,77 17,77 L17,77 Z M17,81 L17,81 C7.61115925,81 0,73.3888407 0,64 C0,54.6111593 7.61115925,47 17,47 C26.3888407,47 34,54.6111593 34,64 C34,73.3888407 26.3888407,81 17,81 L17,81 Z" id="Shape" fill="#1A2A56" sketch:type="MSShapeGroup"></path>
            <path d="M126,77 L126,77 C133.179702,77 139,71.1797017 139,64 C139,56.8202983 133.179702,51 126,51 C118.820298,51 113,56.8202983 113,64 C113,71.1797017 118.820298,77 126,77 L126,77 Z M126,81 L126,81 C116.611159,81 109,73.3888407 109,64 C109,54.6111593 116.611159,47 126,47 C135.388841,47 143,54.6111593 143,64 C143,73.3888407 135.388841,81 126,81 L126,81 Z" id="Shape" fill="#1A2A56" sketch:type="MSShapeGroup"></path>
            <path d="M44,124 L44,124 C51.1797017,124 57,118.179702 57,111 C57,103.820298 51.1797017,98 44,98 C36.8202983,98 31,103.820298 31,111 C31,118.179702 36.8202983,124 44,124 L44,124 Z M44,128 L44,128 C34.6111593,128 27,120.388841 27,111 C27,101.611159 34.6111593,94 44,94 C53.3888407,94 61,101.611159 61,111 C61,120.388841 53.3888407,128 44,128 L44,128 Z" id="Shape" fill="#1A2A56" sketch:type="MSShapeGroup"></path>
            <path d="M100,30 L100,30 C107.179702,30 113,24.1797017 113,17 C113,9.82029825 107.179702,4 100,4 C92.8202983,4 87,9.82029825 87,17 C87,24.1797017 92.8202983,30 100,30 L100,30 Z M100,34 L100,34 C90.6111593,34 83,26.3888407 83,17 C83,7.61115925 90.6111593,0 100,0 C109.388841,0 117,7.61115925 117,17 C117,26.3888407 109.388841,34 100,34 L100,34 Z" id="Shape" fill="#1A2A56" sketch:type="MSShapeGroup"></path>
            <path d="M100,124 L100,124 C107.179702,124 113,118.179702 113,111 C113,103.820298 107.179702,98 100,98 C92.8202983,98 87,103.820298 87,111 C87,118.179702 92.8202983,124 100,124 L100,124 Z M100,128 L100,128 C90.6111593,128 83,120.388841 83,111 C83,101.611159 90.6111593,94 100,94 C109.388841,94 117,101.611159 117,111 C117,120.388841 109.388841,128 100,128 L100,128 Z" id="Shape" fill="#1A2A56" sketch:type="MSShapeGroup"></path>
            <path d="M13.5051626,51.4751445 C10.1211299,54.5825285 8,59.043556 8,64 C8,68.956444 10.1211299,73.4174715 13.5051626,76.5248555 C8.02282295,74.9983552 4,69.9689679 4,64 C4,58.0310321 8.02282295,53.0016448 13.5051626,51.4751445 Z" id="Oval-9-Copy-13" fill="#44EACC" sketch:type="MSShapeGroup"></path>
            <path d="M122.505163,51 C119.12113,54.107384 117,58.5684115 117,63.5248555 C117,68.4812995 119.12113,72.942327 122.505163,76.049711 C117.022823,74.5232107 113,69.4938234 113,63.5248555 C113,57.5558876 117.022823,52.5265004 122.505163,51 Z" id="Oval-9-Copy-18" fill="#44EACC" sketch:type="MSShapeGroup"></path>
            <path d="M96.5051626,4 C93.1211299,7.10738399 91,11.5684115 91,16.5248555 C91,21.4812995 93.1211299,25.942327 96.5051626,29.049711 C91.022823,27.5232107 87,22.4938234 87,16.5248555 C87,10.5558876 91.022823,5.52650036 96.5051626,4 Z" id="Oval-9-Copy-19" fill="#44EACC" sketch:type="MSShapeGroup"></path>
            <path d="M40.5051626,4 C37.1211299,7.10738399 35,11.5684115 35,16.5248555 C35,21.4812995 37.1211299,25.942327 40.5051626,29.049711 C35.022823,27.5232107 31,22.4938234 31,16.5248555 C31,10.5558876 35.022823,5.52650036 40.5051626,4 Z" id="Oval-9-Copy-20" fill="#44EACC" sketch:type="MSShapeGroup"></path>
            <path d="M40.5051626,98.4751445 C37.1211299,101.582528 35,106.043556 35,111 C35,115.956444 37.1211299,120.417472 40.5051626,123.524856 C35.022823,121.998355 31,116.968968 31,111 C31,105.031032 35.022823,100.001645 40.5051626,98.4751445 Z" id="Oval-9-Copy-21" fill="#44EACC" sketch:type="MSShapeGroup"></path>
            <path d="M96.5051626,98.4751445 C93.1211299,101.582528 91,106.043556 91,111 C91,115.956444 93.1211299,120.417472 96.5051626,123.524856 C91.022823,121.998355 87,116.968968 87,111 C87,105.031032 91.022823,100.001645 96.5051626,98.4751445 Z" id="Oval-9-Copy-22" fill="#44EACC" sketch:type="MSShapeGroup"></path>
        </g>
    </g>
</svg>