<svg xmlns="http://www.w3.org/2000/svg" width="52" height="61" viewBox="0 0 52 61">
  <g fill="none">
    <path fill="#F5F5F3" d="M51,59.0246 L47,59.0076 L49,59.0166 L47,59.0136 C46.999,58.2576 46.722,40.3976 25.262,31.8756 C1.187,22.3156 0.997,1.8736 1,1.0076 L5,1.0246 C5.001,1.7746 5.278,19.6356 26.738,28.1576 C50.813,37.7176 51.003,58.1596 51,59.0246"/>
    <path fill="#1A2A56" d="M49.9607093,58.020174 C49.9085602,57.305519 49.8003816,56.4069917 49.6116776,55.3581593 C49.1427052,52.7515716 48.3004722,50.0201867 46.9955203,47.2819331 C43.3131867,39.5550865 36.6944317,33.1871801 26.3689252,29.0869997 C16.7166729,25.253985 10.4425518,19.3080264 6.92363195,12.1160991 C5.67126841,9.55653309 4.85708195,7.00545725 4.39655337,4.56776764 C4.23021373,3.68729154 4.12077805,2.87429262 4.05782092,2.14191474 C4.05545939,2.11444313 3.38260873,2.07114686 2.03926894,2.01202592 C2.0914087,2.72686198 2.1995895,3.62555836 2.38832435,4.67462982 C2.85728935,7.28134386 3.69952243,10.0128236 5.004483,12.7511487 C8.68678129,20.4780719 15.3055336,26.8460062 25.6310748,30.9462003 C35.2835593,34.7793071 41.5576868,40.7252719 45.0763835,47.9173825 C46.3288043,50.4772931 47.1429881,53.0288455 47.6034599,55.4671901 C47.7698105,56.3480692 47.8792432,57.1615229 47.942186,57.8944283 C47.9444632,57.9209438 48.6173043,57.962859 49.9607093,58.020174 Z M47.00425,58.007609 L47.9519199,58.0116366 C47.9862968,58.4413746 47.9996912,58.7795032 47.9999991,59.0122772 L47,59.0136 L47.0015,58.0136011 L49.0015,58.0166011 L48.9955,60.0165899 L46.9955,60.0075899 L47.00425,58.007609 Z M46.0075274,59.1368892 C45.9991212,58.3498713 45.9045601,57.2488033 45.6381964,55.8383224 C45.2096267,53.5689097 44.4497272,51.1874776 43.2798665,48.7963175 C39.9762711,42.0438674 34.0750809,36.4513338 24.8929401,32.8050056 C14.0887656,28.5147498 7.09424636,21.7852883 3.199017,13.6115513 C1.81360256,10.7044019 0.919107079,7.80342798 0.419925649,5.02875768 C0.239742019,4.0272177 0.122797342,3.10230938 0.057271641,2.26886524 C0.0142002279,1.72102499 -0.000998058218,1.29397404 6.00029802e-06,1.00413582 C0.00192027857,0.45154749 0.451663309,0.00526053785 1.00424996,0.00760903113 L5.00424996,0.0246090311 C5.55435058,0.0269469588 5.99926564,0.473161565 5.99999911,1.02326667 C6.0008833,1.68640468 6.09548076,2.78685335 6.36179038,4.19649486 C6.79040908,6.46527769 7.55030935,8.84625958 8.72011805,11.2371009 C12.023937,17.9894076 17.925141,23.5819543 27.1070599,27.2281944 C37.9111958,31.5184349 44.9057144,38.2478636 48.8009797,46.4215169 C50.1863856,49.3285916 51.080882,52.2294679 51.5800724,55.0040094 C51.7602544,56.0054764 51.8771997,56.9303035 51.9427275,57.7636535 C51.9857981,58.3114043 52.0009986,58.7384006 51.999994,59.0280682 C51.9980775,59.5806549 51.5483351,60.0269395 50.99575,60.024591 L46.99575,60.007591 C46.9044194,60.0072028 46.8193859,59.9974557 46.7406438,59.9796354 C46.295951,59.8789963 46.0519166,59.5208755 46.0075274,59.1368892 C45.9450292,58.5962529 46.2782961,58.0043422 47.0045,58.0076101 L49.0045,58.0166101 C50.3248253,58.0225516 50.329841,59.98576 49.031217,60.0162417 C49.0240069,60.0164109 48.3464345,60.01553 46.9985,60.0135989 C46.9093286,60.0134651 46.8228949,60.0016622 46.7406438,59.9796354 C46.3525732,59.8757104 46.0576108,59.5441958 46.0075274,59.1368892 Z"/>
    <path fill="#F5F5F3" d="M26.7383,28.1491 C28.2023,28.7301 29.5733,29.3531 30.8663,30.0081 C50.8313,19.8921 51.0033,1.8121 51.0003,1.0001 L47.0003,1.0161 C47.0013,1.1991 46.8173,19.1491 25.9993,27.8361 C26.2473,27.9401 26.4843,28.0481 26.7383,28.1491"/>
    <path fill="#1A2A56" d="M26.3694284,29.0785803 C26.2274003,29.0221049 26.1155899,28.9747779 25.891055,28.8776166 C25.738744,28.8117366 25.6840023,28.7882485 25.6125733,28.7582944 C24.7940936,28.415061 24.7951163,27.2550149 25.6141999,26.9132252 C34.4947908,23.2075045 40.2029766,17.5719791 43.4030166,10.8093739 C44.5245941,8.43915801 45.252545,6.09418055 45.6636468,3.87978775 C45.8078658,3.10295466 45.9020395,2.39776266 45.9558096,1.77828607 C45.9880357,1.40701445 46.0008442,1.11842043 46.0003149,1.0215644 C45.9972939,0.468715914 46.4434477,0.0183194092 46.9963,0.0161079999 L50.9963,0.000107999904 C51.5486996,-0.00210159852 51.9982523,0.444005189 52.0002932,0.996405444 C52.0012605,1.25822622 51.9884133,1.64454228 51.9522264,2.13790707 C51.8974755,2.88436762 51.799861,3.71483218 51.649618,4.61689227 C51.2342539,7.11074051 50.4905933,9.74192316 49.3395571,12.4110847 C46.1048894,19.9120221 40.296675,26.3508947 31.318279,30.9001286 C31.0341831,31.0440762 30.6985099,31.0440912 30.4144011,30.9001692 C29.1103445,30.2395682 27.7665326,29.6330322 26.3694284,29.0785803 Z M30.8603829,28.8870278 C39.1530802,24.5719599 44.501697,18.5789979 47.5030429,11.6191153 C48.5870317,9.1054315 49.2869181,6.6291283 49.6767945,4.28830773 C49.8253851,3.39616942 49.914167,2.62631591 49.9601453,2.00426862 L47.9467258,2.0123223 C47.8912171,2.61734725 47.7898649,3.38399335 47.630047,4.24484975 C47.1887559,6.62185654 46.4098666,9.13092401 45.2108334,11.6648261 C42.0708635,18.3004859 36.6672287,23.912122 28.5199736,27.8047631 C29.3151249,28.1481191 30.0944736,28.5087678 30.8603829,28.8870278 Z"/>
    <path fill="#F5F5F3" d="M25.2617,31.8669 C23.7977,31.2859 22.4267,30.6629 21.1337,30.0079 C1.1687,40.1239 0.9967,58.2039 0.9997,59.0159 L4.9997,58.9999 C4.9987,58.8169 5.1827,40.8669 26.0007,32.1799 C25.7527,32.0759 25.5157,31.9679 25.2617,31.8669"/>
    <path fill="#1A2A56" d="M25.6305716,30.9374197 C25.7725997,30.9938951 25.8844101,31.0412221 26.108945,31.1383834 C26.261256,31.2042634 26.3159977,31.2277515 26.3874267,31.2577056 C27.2059064,31.600939 27.2048837,32.7609851 26.3858001,33.1027748 C17.5052092,36.8084955 11.7970234,42.4440209 8.59698338,49.2066261 C7.47540592,51.576842 6.74745502,53.9218195 6.33635322,56.1362122 C6.19213424,56.9130453 6.09796052,57.6182373 6.04419043,58.2377139 C6.01196434,58.6089856 5.9991558,58.8975796 5.99968507,58.9944356 C6.0027061,59.5472841 5.55655228,59.9976806 5.00369997,59.999892 L1.00369997,60.015892 C0.451300362,60.0181016 0.00174771254,59.5719948 -0.000293175104,59.0195946 C-0.00126049324,58.7577738 0.0115866533,58.3714577 0.0477736413,57.8780929 C0.102524527,57.1316324 0.200139003,56.3011678 0.350382045,55.3991077 C0.765746114,52.9052595 1.50940666,50.2740768 2.6604429,47.6049153 C5.89511063,40.1039779 11.703325,33.6651053 20.681721,29.1158714 C20.9658169,28.9719238 21.3014901,28.9719088 21.5855989,29.1158308 C22.8896555,29.7764318 24.2334674,30.3829678 25.6305716,30.9374197 Z M21.1396171,31.1289722 C12.8469198,35.4440401 7.49830304,41.4370021 4.4969571,48.3968847 C3.41296834,50.9105685 2.71308193,53.3868717 2.32320545,55.7276923 C2.17461494,56.6198306 2.08583303,57.3896841 2.03985469,58.0117314 L4.05327417,58.0036777 C4.10878287,57.3986528 4.21013512,56.6320067 4.36995303,55.7711503 C4.81124409,53.3941435 5.59013342,50.885076 6.78916662,48.3511739 C9.92913654,41.7155141 15.3327713,36.103878 23.4800264,32.2112369 C22.6848751,31.8678809 21.9055264,31.5072322 21.1396171,31.1289722 Z"/>
    <path fill="#31BEB7" d="M44.8521,10.008 C45.4611,8.558 45.8961,7.205 46.2081,6.008 L5.7421,6.008 C6.0451,7.204 6.4761,8.56 7.0771,10.008 L44.8521,10.008 Z"/>
    <path fill="#1A2A56" d="M7.0771,11.008 C6.67289917,11.008 6.30844468,10.7646686 6.15349555,10.3913469 C5.57278986,8.9922423 5.11415396,7.60127181 4.77272514,6.25358577 C4.61263522,5.6216797 5.09023033,5.008 5.7421,5.008 L46.2081,5.008 C46.862803,5.008 47.3409009,5.62668882 47.1757688,6.26022444 C46.8208682,7.62181392 46.3584903,9.00378439 45.7740821,10.3952325 C45.6181557,10.7664859 45.2547688,11.008 44.8521,11.008 L7.0771,11.008 Z M44.1793767,9.008 C44.4431761,8.33783046 44.6770568,7.67068099 44.8828961,7.00799994 L7.05939561,7.008 C7.26070424,7.66762463 7.4916783,8.33586398 7.7529181,9.008 L44.1793767,9.008 Z"/>
    <path fill="#31BEB7" d="M38.061,20.008 C39.393,18.694 40.518,17.347 41.482,16.008 L10.423,16.008 C11.388,17.347 12.535,18.693 13.874,20.008 L38.061,20.008 Z"/>
    <path fill="#1A2A56" d="M13.874,21.008 C13.6119156,21.008 13.3603061,20.9051102 13.1733162,20.7214719 C11.8284211,19.4006826 10.6376291,18.0161731 9.61173005,16.5926718 C9.13504327,15.931238 9.60769335,15.008 10.423,15.008 L41.482,15.008 C42.2970815,15.008 42.7697873,15.9307874 42.2935573,16.5922728 C41.2415641,18.0534957 40.0734204,19.427465 38.7632803,20.7199006 C38.5761501,20.904502 38.32386,21.008 38.061,21.008 L13.874,21.008 Z M37.6468457,19.008 C38.2831635,18.3630733 38.8830939,17.6967454 39.4503452,17.008 L12.4641984,17.008 C13.030247,17.6873339 13.6381587,18.3551402 14.2865395,19.008 L37.6468457,19.008 Z"/>
    <path fill="#31BEB7" d="M13.9385,40.008 C12.6065,41.322 11.4825,42.669 10.5185,44.008 L41.5765,44.008 C40.6115,42.669 39.4645,41.323 38.1255,40.008 L13.9385,40.008 Z"/>
    <path fill="#1A2A56" d="M13.2362197,39.2960994 C13.4233499,39.111498 13.67564,39.008 13.9385,39.008 L38.1255,39.008 C38.3875844,39.008 38.6391939,39.1108898 38.8261838,39.2945281 C40.1710789,40.6153174 41.3618709,41.9998269 42.3877699,43.4233282 C42.8644567,44.084762 42.3918067,45.008 41.5765,45.008 L10.5185,45.008 C9.70341852,45.008 9.23071273,44.0852126 9.70694267,43.4237272 C10.7604333,41.9604243 11.9274153,40.5872173 13.2362197,39.2960994 Z M12.5497898,43.008 L39.5353016,43.008 C38.969253,42.3286661 38.3613413,41.6608598 37.7129605,41.0079999 L14.3526683,41.008 C13.7167831,41.6525581 13.1171772,42.3187743 12.5497898,43.008 Z"/>
    <path fill="#31BEB7" d="M7.1479,50.008 C6.5389,51.458 6.1039,52.811 5.7919,54.008 L46.2569,54.008 C45.9549,52.812 45.5229,51.456 44.9219,50.008 L7.1479,50.008 Z"/>
    <path fill="#1A2A56" d="M6.22591789,49.6207675 C6.38184432,49.2495141 6.74523124,49.008 7.1479,49.008 L44.9219,49.008 C45.3261008,49.008 45.6905553,49.2513314 45.8455044,49.6246531 C46.4279694,51.0279962 46.8876257,52.4212726 47.2264676,53.7631761 C47.3859814,54.3948931 46.9084451,55.008 46.2569,55.008 L5.7919,55.008 C5.13719702,55.008 4.65909915,54.3893112 4.82423124,53.7557756 C5.17913175,52.3941861 5.64150969,51.0122156 6.22591789,49.6207675 Z M7.11710393,53.0080001 L44.9400428,53.008 C44.7391473,52.3497856 44.5079223,51.6812735 44.246134,51.008 L7.82062328,51.008 C7.55682388,51.6781695 7.32294319,52.345319 7.11710393,53.0080001 Z"/>
  </g>
</svg>
