<?xml version="1.0" encoding="UTF-8" standalone="no"?>
<svg width="50px" height="50px" viewBox="0 0 50 50" version="1.1" xmlns="http://www.w3.org/2000/svg" xmlns:xlink="http://www.w3.org/1999/xlink" xmlns:sketch="http://www.bohemiancoding.com/sketch/ns">
    <!-- Generator: Sketch 3.4.4 (17248) - http://www.bohemiancoding.com/sketch -->
    <title>Oval-1</title>
    <desc>Created with Sketch.</desc>
    <defs></defs>
    <g id="Page-1" stroke="none" stroke-width="1" fill="none" fill-rule="evenodd" sketch:type="MSPage">
        <g id="v" sketch:type="MSArtboardGroup" transform="translate(-305.000000, -250.000000)" fill="#FFFFFF">
            <path d="M330,300 C343.807119,300 355,288.807119 355,275 C355,261.192881 343.807119,250 330,250 C316.192881,250 305,261.192881 305,275 C305,288.807119 316.192881,300 330,300 L330,300 Z M330,297 C342.150265,297 352,287.150265 352,275 C352,262.849735 342.150265,253 330,253 C317.849735,253 308,262.849735 308,275 C308,287.150265 317.849735,297 330,297 L330,297 Z M319,270.118048 L319,284.658183 L323.710085,284.658183 L323.710085,270.118048 L319,270.118048 L319,270.118048 Z M321.664696,263 C320.053406,263 319,264.085861 319,265.511512 C319,266.907633 320.022271,268.024761 321.603556,268.024761 L321.633656,268.024761 C323.275987,268.024761 324.298822,266.907633 324.298822,265.511512 C324.268252,264.085861 323.275987,263 321.664696,263 L321.664696,263 Z M335.576921,270.118048 C333.076176,270.118048 331.95655,271.52932 331.331411,272.519353 L331.331411,270.459864 L326.620761,270.459864 C326.682843,271.824236 326.620761,285 326.620761,285 L331.331411,285 L331.331411,276.879589 C331.331411,276.445032 331.361981,276.011537 331.48652,275.700408 C331.826932,274.83226 332.602007,273.933423 333.903267,273.933423 C335.608338,273.933423 336.289915,275.26672 336.289915,277.220633 L336.289915,284.999614 L340.999812,284.999614 L341,276.662745 C341,272.196644 338.676374,270.118048 335.576921,270.118048 L335.576921,270.118048 Z" id="Oval-1" sketch:type="MSShapeGroup"></path>
        </g>
    </g>
</svg>