<svg xmlns="http://www.w3.org/2000/svg" width="147" height="132" viewBox="0 0 147 132">
  <g fill="none" fill-rule="evenodd">
    <circle cx="73" cy="66" r="54" fill="#F5F5F5"/>
    <polygon fill="#31BEB7" points="93.985 80.454 105.845 101.85 129.723 102.546 141.787 81.927 129.927 60.531 106.049 59.835"/>
    <path fill="#44EACC" d="M131.591608,63.5350504 L129.926523,60.5311574 L106.048551,59.8354368 L93.9851587,80.4537808 L95.5841336,83.3384078 L107.580024,62.8354368 L131.591608,63.5350504 Z"/>
    <polygon fill="#31BEB7" points="16.365 4.034 4.302 24.652 16.162 46.048 40.04 46.744 52.103 26.125 40.243 4.729"/>
    <path fill="#44EACC" d="M41.9128108,7.74202883 L40.2428916,4.72941485 L16.3649202,4.0336942 L4.30152776,24.6520382 L5.75723899,27.2782108 L17.6019123,7.0336942 L41.9128108,7.74202883 Z"/>
    <polygon fill="#FFFFFF" points="48.685 52.807 60.545 74.203 84.423 74.899 96.486 54.281 84.626 32.884 60.748 32.189"/>
    <path fill="#1A2A56" fill-rule="nonzero" d="M16.3649202 4.0336942L4.30152776 24.6520382 16.1615435 46.048073 40.039515 46.7437937 52.1029074 26.1254497 40.2428916 4.72941485 16.3649202 4.0336942zM15.2958734.000848395835L41.498091.764289461C42.203987.784856804 42.8467117 1.17616929 43.1890821 1.79382183L56.1536746 25.1825658C56.496045 25.8002183 56.4873046 26.5526438 56.1306788 27.1621766L42.8930537 49.7874795C42.5237796 50.4186302 41.8394933 50.7979363 41.1085618 50.7766395L14.9063442 50.0131984C14.2004482 49.9926311 13.5577234 49.6013186 13.2153531 48.9836661L.250760586 25.5949221C-.0916098075 24.9772696-.0828693852 24.224844.273756396 23.6153113L13.5113815.990008406C13.8806555.358857691 14.5649418-.0204483964 15.2958734.000848395835zM48.1248765 105.87455L59.9848923 127.270585 83.8628637 127.966306 95.9262562 107.347962 84.0662404 85.951927 60.188269 85.2562063 48.1248765 105.87455zM59.1192222 81.2233605L85.3214398 81.9868016C86.0273357 82.0073689 86.6700605 82.3986814 87.0124309 83.0163339L99.9770234 106.405078C100.319394 107.02273 100.310653 107.775156 99.9540275 108.384689L86.7164024 131.009992C86.3471284 131.641142 85.6628421 132.020448 84.9319105 131.999152L58.7296929 131.235711C58.023797 131.215143 57.3810722 130.823831 57.0387018 130.206178L44.0741093 106.817434C43.7317389 106.199782 43.7404794 105.447356 44.0971051 104.837823L57.3347303 82.2125205C57.7040043 81.5813698 58.3882906 81.2020637 59.1192222 81.2233605zM93.9851587 80.4537808L105.845175 101.849816 129.723146 102.545536 141.786538 81.9271923 129.926523 60.5311574 106.048551 59.8354368 93.9851587 80.4537808zM104.979504 55.802591L131.181722 56.566032C131.887618 56.5865994 132.530343 56.9779119 132.872713 57.5955644L145.837306 80.9843083C146.179676 81.6019609 146.170936 82.3543864 145.81431 82.9639192L132.576685 105.589222C132.207411 106.220373 131.523124 106.599679 130.792193 106.578382L104.589975 105.814941C103.884079 105.794374 103.241354 105.403061 102.898984 104.785409L89.9343916 81.3966647C89.5920212 80.7790122 89.6007616 80.0265866 89.9573874 79.4170539L103.195013 56.791751C103.564287 56.1606003 104.248573 55.7812942 104.979504 55.802591zM48.6847404 52.8071172L60.5447562 74.203152 84.4227276 74.8988727 96.4861201 54.2805287 84.6261043 32.8844938 60.7481329 32.1887732 48.6847404 52.8071172zM59.6790861 28.1559274L85.8813037 28.9193684C86.5871997 28.9399358 87.2299244 29.3312483 87.5722948 29.9489008L100.536887 53.3376447C100.879258 53.9552973 100.870517 54.7077228 100.513891 55.3172556L87.2762663 77.9425585C86.9069923 78.5737092 86.222706 78.9530153 85.4917744 78.9317185L59.2895568 78.1682774C58.5836609 78.1477101 57.9409361 77.7563976 57.5985657 77.138745L44.6339733 53.7500011C44.2916029 53.1323486 44.3003433 52.379923 44.6569691 51.7703903L57.8945942 29.1450874C58.2638682 28.5139367 58.9481545 28.1346306 59.6790861 28.1559274z"/>
  </g>
</svg>
