<?xml version="1.0" encoding="utf-8"?>
<!-- Generator: Adobe Illustrator 17.0.0, SVG Export Plug-In . SVG Version: 6.00 Build 0)  -->
<!DOCTYPE svg PUBLIC "-//W3C//DTD SVG 1.1//EN" "http://www.w3.org/Graphics/SVG/1.1/DTD/svg11.dtd">
<svg version="1.1" id="Layer_1" xmlns="http://www.w3.org/2000/svg" xmlns:xlink="http://www.w3.org/1999/xlink" x="0px" y="0px"
	 width="536.136px" height="94.728px" viewBox="0 0 536.136 94.728" enable-background="new 0 0 536.136 94.728"
	 xml:space="preserve">
<g>
	<g>
		<circle fill="#31BDB6" cx="105.299" cy="47.265" r="13.689"/>
		
			<linearGradient id="SVGID_1_" gradientUnits="userSpaceOnUse" x1="601.1722" y1="-1535.2523" x2="601.1722" y2="-1534.9012" gradientTransform="matrix(600 0 0 270 -360598 414518)">
			<stop  offset="0" style="stop-color:#EFE790"/>
			<stop  offset="0.9997" style="stop-color:#31BDB6"/>
		</linearGradient>
		<path fill="url(#SVGID_1_)" d="M137.826,52.863c-3.278,3.847-5.956,6.465-9.087,8.975c-6.929,5.549-14.226,8.28-23.551,8.28
			c-9.329,0-16.626-2.731-23.551-8.28c-5.76-4.616-9.986-9.596-19.22-21.923c-5.079-6.785-7.406-9.796-10.53-13.478
			c-4.314-5.086-8.494-9.287-12.983-12.885C27.749,4.616,15.093-0.119,0-0.119v94.767c15.093,0,27.749-4.735,38.904-13.671
			c4.489-3.598,8.669-7.799,12.983-12.885c0.239-0.281,0.474-0.562,0.705-0.839c0.235,0.277,0.47,0.558,0.709,0.839
			c4.314,5.086,8.49,9.287,12.983,12.885c11.151,8.936,23.811,13.671,38.904,13.671c15.089,0,27.749-4.735,38.9-13.671
			c3.103-2.481,6.055-5.254,9.003-8.406C150.009,68.938,139.178,54.614,137.826,52.863z M11.92,68.317
			c-1.794,0.593-3.657,1.039-5.609,1.337V24.875c1.951,0.298,3.815,0.744,5.609,1.337V68.317z M23.843,61.603
			c-0.098,0.081-0.193,0.158-0.291,0.235c-1.741,1.393-3.506,2.611-5.317,3.65V29.041c1.811,1.039,3.577,2.257,5.317,3.65
			c0.098,0.077,0.193,0.154,0.291,0.235V61.603z M30.154,55.667V38.862c2.078,2.243,4.303,4.924,7.02,8.403
			C34.457,50.743,32.231,53.425,30.154,55.667z M171.69,13.552c-4.489,3.598-8.669,7.799-12.983,12.885
			c-0.239,0.281-0.474,0.562-0.705,0.839c-0.235-0.277-0.47-0.558-0.709-0.839c-4.314-5.086-8.49-9.287-12.983-12.885
			c-11.151-8.936-23.811-13.671-38.904-13.671c-15.089,0-27.749,4.735-38.9,13.671c-3.103,2.481-6.055,5.254-9.003,8.406
			c3.082,3.633,13.913,17.957,15.265,19.708c3.278-3.847,5.956-6.465,9.087-8.975c6.929-5.549,14.226-8.28,23.551-8.28
			c9.329,0,16.626,2.731,23.551,8.28c5.76,4.616,9.986,9.596,19.22,21.923c5.079,6.785,7.406,9.796,10.53,13.478
			c4.314,5.086,8.494,9.287,12.983,12.885c11.154,8.936,23.811,13.671,38.904,13.671V-0.119
			C195.501-0.119,182.844,4.616,171.69,13.552z M180.44,55.667c-2.078-2.243-4.303-4.924-7.02-8.403
			c2.717-3.478,4.942-6.16,7.02-8.403V55.667z M192.36,65.488c-1.811-1.039-3.577-2.257-5.318-3.65
			c-0.098-0.077-0.193-0.154-0.291-0.235V32.927c0.098-0.081,0.193-0.158,0.291-0.235c1.741-1.393,3.506-2.611,5.318-3.65V65.488z
			 M204.283,69.654c-1.952-0.298-3.815-0.744-5.609-1.337V26.212c1.794-0.593,3.657-1.039,5.609-1.337V69.654z"/>
	</g>
	<path fill="#1A2A56" d="M227.587,23.785h6.928l-0.212-18.204l10.286,18.204h5.726l10.463-18.204l-0.353,18.204h6.999V0.208h-11.311
		l-8.554,15.659l-8.589-15.659h-11.382L227.587,23.785L227.587,23.785z M288.632-0.039c6.787,0,8.872,0.071,10.534,0.353
		c3.641,0.672,5.408,2.545,5.903,6.327c0.141,0.954,0.212,2.863,0.212,5.726c0,5.691-0.601,7.989-2.616,9.65
		c-1.414,1.202-3.393,1.767-6.822,1.909c-1.273,0.071-4.419,0.106-6.716,0.106c-5.62,0-8.483-0.106-9.897-0.389
		c-2.616-0.459-4.136-1.449-5.02-3.181c-0.919-1.732-1.131-3.464-1.131-8.625c0-3.959,0.071-4.949,0.495-6.539
		c0.671-2.51,2.05-3.853,4.701-4.631C280.255,0.102,282.411-0.039,288.632-0.039z M289.198,5.722c-5.267,0-6.716,0.177-7.635,0.848
		c-0.954,0.742-1.237,1.909-1.237,5.302c0,3.464,0.283,4.737,1.166,5.479c0.954,0.778,2.121,0.919,7.529,0.919
		c6.186,0,7.459-0.212,8.271-1.343c0.671-0.848,0.848-2.05,0.848-5.196C298.141,5.793,298.034,5.722,289.198,5.722z M310.936,23.785
		h23.4v-5.832h-16.224V0.208h-7.176L310.936,23.785L310.936,23.785z M338.119,0.208v23.577h26.369v-5.337h-19.3v-4.171h17.957V9.61
		h-17.957V5.546h19.052V0.208L338.119,0.208L338.119,0.208z M392.272,14.912c0,1.697-0.389,2.439-1.414,2.863
		c-0.99,0.424-1.767,0.459-7.105,0.459c-6.893,0-7.423-0.424-7.423-6.08c0-3.818,0.177-4.772,1.025-5.549
		c0.884-0.778,1.944-0.919,7.812-0.919c6.221,0,6.751,0.212,6.893,2.792h6.857V7.701c0-3.464-0.884-5.549-2.793-6.504
		c-2.015-0.99-3.924-1.166-12.725-1.166c-6.61,0-8.872,0.318-10.993,1.555c-2.474,1.414-3.181,3.641-3.181,9.862
		c0,6.999,0.671,9.473,3.005,10.958c1.909,1.237,4.1,1.555,10.887,1.555c4.701,0,7.529-0.035,8.978-0.177
		c3.676-0.247,5.585-1.202,6.504-3.216c0.495-1.06,0.601-2.227,0.636-5.655L392.272,14.912L392.272,14.912z M404.855,0.208v12.69
		c-0.106,6.999,1.025,9.226,5.302,10.534c1.732,0.459,3.04,0.53,9.685,0.565l2.686-0.035c1.414,0,2.05,0,3.146-0.035
		c3.075-0.035,5.196-0.601,6.893-1.909c2.086-1.874,2.58-3.605,2.51-9.438V0.208h-7.176v10.816c0,2.616,0,2.616-0.035,3.146
		c-0.035,1.803-0.389,2.828-1.096,3.358c-0.884,0.671-2.368,0.813-7.741,0.813c-5.373,0-6.539-0.53-6.893-3.181
		c-0.106-0.636-0.106-0.707-0.106-3.287V0.207L404.855,0.208L404.855,0.208z M441.016,23.785h23.4v-5.832h-16.224V0.208h-7.176
		V23.785z M467.385,23.785l13.255-23.577h9.615l12.902,23.577h-7.847l-2.333-4.206h-15.2l-2.262,4.206H467.385z M480.358,14.665
		h10.11l-5.09-9.403L480.358,14.665z M506.445,23.785V0.208h20.325c4.171,0,6.009,0.353,7.352,1.485
		c1.379,1.096,2.015,3.11,2.015,6.292c0,4.383-1.06,6.115-4.065,6.787c2.934,0.495,3.818,1.732,3.747,5.302v3.711h-7.282V20.85
		c-0.035-2.545-0.742-3.075-3.959-3.004h-10.993v5.938L506.445,23.785L506.445,23.785z M513.585,12.085h11.205
		c3.464,0,4.136-0.424,4.136-2.757c0-1.52-0.141-2.156-0.601-2.651c-0.53-0.565-1.131-0.671-3.287-0.671h-11.453V12.085z
		 M227.198,51.603c-0.035,0.495-0.035,0.954-0.035,1.166c0,2.792,0.742,4.595,2.192,5.302c2.086,1.06,3.888,1.237,12.054,1.237
		c5.126,0,8.625-0.212,10.392-0.601c3.464-0.742,4.737-2.651,4.737-6.999c0-4.737-1.767-6.716-6.256-6.928
		c-1.202-0.071-4.383-0.177-5.02-0.177h-6.681c-2.333-0.035-2.474-0.071-2.898-0.177c-1.025-0.247-1.52-0.884-1.52-1.874
		c0-1.343,0.636-1.838,2.545-1.98c1.131-0.071,4.206-0.141,6.504-0.141c4.631,0,5.337,0.283,5.337,2.333h6.999
		c0-3.535-0.53-4.984-2.156-6.08c-1.697-1.096-3.605-1.308-11.877-1.308c-5.161,0-7.918,0.177-9.827,0.671
		c-3.393,0.813-4.595,2.616-4.595,6.857c0,3.216,0.778,5.09,2.474,5.974c1.52,0.778,3.323,1.025,7.671,1.025h6.504
		c3.711,0.035,3.711,0.035,4.489,0.283c0.742,0.247,1.202,0.954,1.202,1.909c0,1.944-0.99,2.192-9.296,2.192
		c-2.262,0-4.277-0.141-4.807-0.353c-0.848-0.318-1.025-0.707-1.096-2.333L227.198,51.603L227.198,51.603z M284.638,50.26
		c0,1.697-0.389,2.439-1.414,2.863c-0.99,0.424-1.767,0.459-7.105,0.459c-6.893,0-7.423-0.424-7.423-6.08
		c0-3.818,0.177-4.772,1.025-5.55c0.884-0.778,1.944-0.919,7.812-0.919c6.221,0,6.751,0.212,6.893,2.792h6.857v-0.778
		c0-3.464-0.884-5.55-2.792-6.504c-2.015-0.99-3.924-1.166-12.725-1.166c-6.61,0-8.872,0.318-10.993,1.555
		c-2.474,1.414-3.181,3.641-3.181,9.862c0,6.999,0.671,9.473,3.004,10.958c1.909,1.237,4.1,1.555,10.887,1.555
		c4.701,0,7.529-0.035,8.978-0.177c3.676-0.247,5.585-1.202,6.504-3.217c0.495-1.06,0.601-2.227,0.636-5.656L284.638,50.26
		L284.638,50.26z M297.257,59.132h7.176V35.555h-7.176V59.132z M310.583,35.555v23.577h26.369v-5.338h-19.3v-4.171h17.957v-4.666
		h-17.957v-4.065h19.052v-5.338L310.583,35.555L310.583,35.555z M342.255,59.132h6.893l-0.177-17.745l14.068,17.745h11.523V35.555
		h-6.787l0.177,17.921l-14.28-17.921h-11.417V59.132z M403.229,50.26c0,1.697-0.389,2.439-1.414,2.863
		c-0.99,0.424-1.768,0.459-7.105,0.459c-6.893,0-7.423-0.424-7.423-6.08c0-3.818,0.177-4.772,1.025-5.55
		c0.884-0.778,1.944-0.919,7.812-0.919c6.221,0,6.751,0.212,6.893,2.792h6.857v-0.778c0-3.464-0.884-5.55-2.792-6.504
		c-2.015-0.99-3.924-1.166-12.725-1.166c-6.61,0-8.872,0.318-10.993,1.555c-2.475,1.414-3.181,3.641-3.181,9.862
		c0,6.999,0.671,9.473,3.004,10.958c1.909,1.237,4.1,1.555,10.887,1.555c4.701,0,7.529-0.035,8.978-0.177
		c3.676-0.247,5.585-1.202,6.504-3.217c0.495-1.06,0.601-2.227,0.636-5.656L403.229,50.26L403.229,50.26z M415.848,35.555v23.577
		h26.369v-5.338h-19.3v-4.171h17.957v-4.666h-17.957v-4.065h19.052v-5.338L415.848,35.555L415.848,35.555z M250.138,85.608
		c0,1.697-0.389,2.439-1.414,2.863c-0.99,0.424-1.767,0.459-7.105,0.459c-6.893,0-7.423-0.424-7.423-6.08
		c0-3.817,0.177-4.772,1.025-5.55c0.884-0.778,1.944-0.919,7.812-0.919c6.221,0,6.751,0.212,6.893,2.792h6.857v-0.778
		c0-3.464-0.884-5.55-2.792-6.504c-2.015-0.99-3.924-1.166-12.725-1.166c-6.61,0-8.872,0.318-10.993,1.555
		c-2.474,1.414-3.181,3.641-3.181,9.862c0,6.999,0.671,9.473,3.004,10.958c1.909,1.237,4.1,1.555,10.887,1.555
		c4.701,0,7.529-0.035,8.978-0.177c3.676-0.247,5.585-1.202,6.504-3.216c0.495-1.06,0.601-2.227,0.636-5.656L250.138,85.608
		L250.138,85.608z M277.78,70.656c6.787,0,8.872,0.071,10.534,0.353c3.641,0.672,5.408,2.545,5.903,6.327
		c0.141,0.954,0.212,2.863,0.212,5.726c0,5.691-0.601,7.989-2.616,9.65c-1.414,1.202-3.393,1.767-6.822,1.909
		c-1.272,0.071-4.419,0.106-6.716,0.106c-5.62,0-8.483-0.106-9.897-0.389c-2.616-0.459-4.136-1.449-5.02-3.181
		c-0.919-1.732-1.131-3.464-1.131-8.625c0-3.959,0.071-4.949,0.495-6.539c0.671-2.51,2.05-3.853,4.701-4.631
		C269.403,70.797,271.559,70.656,277.78,70.656z M278.346,76.417c-5.267,0-6.716,0.177-7.635,0.848
		c-0.954,0.742-1.237,1.909-1.237,5.302c0,3.464,0.283,4.737,1.166,5.479c0.954,0.778,2.121,0.919,7.529,0.919
		c6.186,0,7.459-0.212,8.271-1.343c0.671-0.848,0.848-2.05,0.848-5.196C287.289,76.488,287.183,76.417,278.346,76.417z
		 M300.085,94.48V70.903h20.325c4.171,0,6.009,0.353,7.352,1.485c1.379,1.096,2.015,3.11,2.015,6.292
		c0,4.383-1.06,6.115-4.065,6.787c2.934,0.495,3.817,1.732,3.747,5.302v3.711h-7.282v-2.934c-0.035-2.545-0.742-3.075-3.959-3.004
		h-10.993v5.938L300.085,94.48L300.085,94.48z M307.225,82.78h11.205c3.464,0,4.136-0.424,4.136-2.757
		c0-1.52-0.141-2.156-0.601-2.651c-0.53-0.565-1.131-0.671-3.287-0.671h-11.453L307.225,82.78L307.225,82.78z M335.574,94.48V70.903
		h18.027c4.56,0,5.726,0.141,7.211,0.884c2.368,1.166,3.252,3.323,3.252,7.777c0,4.489-0.813,6.822-2.757,8.024
		c-1.379,0.848-2.969,1.096-7.07,1.096h-11.523v5.797L335.574,94.48L335.574,94.48z M342.714,82.957h10.428
		c2.934,0,3.782-0.636,3.782-2.863c0-2.828-0.707-3.464-3.782-3.464h-10.428V82.957z"/>
</g>
</svg>
